/* XPM */
static char *b05dfd7bc2ff4fb3efc5b212ea2c106f2H5JXZtAB0o2PY0S[] = {
/* columns rows colors chars-per-pixel */
"64 64 87 1 ",
"  c #372430",
". c #3D2631",
"X c #3F2831",
"o c #402731",
"O c #442932",
"+ c #4B2C33",
"@ c #512F34",
"# c #553134",
"$ c #5B3435",
"% c #5E3937",
"& c #633736",
"* c #613937",
"= c #6D3937",
"- c #653B38",
"; c #6C3B38",
": c #723D39",
"> c #6E423B",
", c #75423B",
"< c #79443C",
"1 c #744A3E",
"2 c #7D4A3E",
"3 c #764C40",
"4 c #7D4F41",
"5 c #7B5041",
"6 c #814B3F",
"7 c #854E40",
"8 c #884F41",
"9 c #865141",
"0 c #8B5342",
"q c #8C5845",
"w c #8F5E48",
"e c #935644",
"r c #955A46",
"t c #995B46",
"y c #945F49",
"u c #9B5D48",
"i c #A15F48",
"p c #94634B",
"a c #9D634B",
"s c #99694E",
"d c #A3634B",
"f c #AA654C",
"g c #A4694E",
"h c #AD694D",
"j c #B56C4F",
"k c #AC6D50",
"l c #B56E50",
"z c #B86F50",
"x c #A77052",
"c c #AD7153",
"v c #AF7856",
"b c #B27353",
"n c #BA7352",
"m c #B67857",
"M c #BC7956",
"N c #B67F5B",
"B c #BC7C59",
"V c #C07B57",
"C c #C07E5A",
"Z c #C57F5A",
"A c #BE805B",
"S c #C1805B",
"D c #C7815B",
"F c #C7825B",
"G c #C3825C",
"H c #C6825C",
"J c #C5845D",
"K c #C5855E",
"L c #C8835C",
"P c #C8845D",
"I c #CB885F",
"U c #CC885F",
"Y c #C78A61",
"T c #CA8A61",
"R c #CD8860",
"E c #CC8B61",
"W c #CF8D62",
"Q c #D08E63",
"! c #D08F64",
"~ c #D19165",
"^ c #D49266",
"/ c #D59467",
"( c #D79769",
") c #D89769",
"_ c #D79869",
"` c #DA9A6A",
"' c #DB9C6C",
/* pixels */
"uuifjjzzzzzzzzzzzzzzzzjjjzMDW^~JMfddhjzzzzzzzzzzzzzzzzjjjnMDR/``",
"ttudhjzznznnnnznnznnnnnnnnMHW~!JbfddhjzznnnnnnnnnnzzzzzznnMDR^)`",
"eetifjjznnnnnnnnnMMMMMMMMVZPRQRSbduudhjznnnnnnnnnMMMMMMMMVCPR~^/",
"780rifjnnMVVVVVVCCZZZZZDLPIRRRHmgterifjnnMVVVVVVCCZZZZZDPPIRRRRR",
",<60rdhzMVZZZZDDLLPPPPUW!~~QRHMka070edhzMVZZZZDDLPPPPPUW!~~QRPDD",
"*-,20tdkMCDDDDHPPPRRRRW~(``~UCnd02,20tdkMCDDDDHPPPRRRRW~(``~ICMM",
"#$*,60ugbMBBBBCSGHJJJJT~_'`^IMhu7>-;20ugbMBBBBCSGJJJJJT~_'`~PVnz",
"++#-,60tdkcbbbbbbbmmmmAY~_)~PMht6;%*,60udkcbbbbbbmmmmmAY~_(!PMzj",
"OO+$-,29qtaaaaaaaadaagcNY~~QDMht2-##*,29qtaaaaaaaadaagcNY~~WDMzj",
"oo++$*;,26799999000990acATWRDnht2*@+#&;,26799999000990acATWUZMzj",
".ooO+#$&;:,,<,,,,<,,,20gmJRPZnht2*+o+#$&;:,<<,,,,<,,,20gmJRPZMzz",
"..ooO+@$&=;::::::::==,9amJRPZnht2*+.o+@$&=:::::::::==,9amJRPZMnz",
"....oO+$&=:::::::::==,9amJRPZnht2*O .O+$&=:::::::::==,9amJRPZMnz",
".....O+$&;:::::::::::,0dmJRPZnht2*O  o+$&;:::::::::::,0dmJRPZMnz",
".....o+#&;:::::::::::<0amJIPZnht2*O  o+#&;:::::::::::<0amJPPCMnz",
".....o+#&;:::::::::::,0abGPLCnht2*O  .+#&;:::::::::::,0abGPLCnnz",
".....o+#&;:::::::::::,9abSPDCnht2*O  .+#&;:::::::::::,9abSPDVnnz",
".....o+#&;:::::::::::,9abCHDVnht2*O  o+#&;:::::::::::,9abCHDVnnz",
".....o+$&;:::::::::::,9abBDDVnht2*O  o+#&;:::::::::::,9abBDZVnnz",
".....o+#&;:::::::::::<9abCDDVnhu2*O  .+#&;:::::::::::<9abCDZVnnz",
".....o+#&;:::::::::::<9abCDDVnhu2*O  o+$&;:::::::::::,9abCDZVnnz",
".....o+#&;:::::::::;:,7acBSZVnft2*O  o+#&;:::::::::;:,7acBCCVnzj",
"....oo+#%&;;;;;;;;;==:2rgbMMMlfr2%O .o+#%&;;;;;;;;;==:2rgbMMnzjj",
"...ooO+#$%&&&&&&&&&&&&,9tgkkhhde2%O..O+#$%&&&&&&&&&&&&,9tgkkhhhh",
"..oOO++@#####$#######$*,4qyaddu0,$OoO++@#############$*,4qyadddf",
".XoO++@+++++++++++++++#$->29ere7,$+o++++++++++++++++++#$->29etuu",
"ooO+++++OOo.ooooooo..oO++#-,7002;#+O++++Ooo..oooooo..oO++#-,60ee",
"OOOO++OO.               .O@*,<<,*#+OOOOo.               .O@*,266",
"++++OOo..                .+#*;;-%#+OOOo..                .+#*;,,",
"###@++++OOOOOOOOOOOOOOOOO+#$*---%$#@++++OOOOOOOOOOOOOOOOO+#$*-;>",
"--*********************%**->1111>;-********************%%*->1345",
",<<222222222222222222222229qyppw042<22662222222222222222229qwpss",
"7800erttuutttttttttttttrruagcmvxar00ertuuurrtttttttttttrruagcmNN",
"eeruddffhhhhhhhhhhhhhhhhhhbMGJJNkattidfhhhhhhhhhhhhhhhhhhhbMGYRR",
"eerudhjznnnnnnnnnnnnnnnMMMCJRWTBcatudhjznnnnnnnnnnnnnnnMMMCHTW~~",
"700tdfjnnMVVVVVCCZZZZZDDPPRRWRJMguerifjnnMVVVVVCCZZZZZDDPPURRWWQ",
",<60tdhnMCZDDDDDLPPPPPRQ~^^!RPBka070rdhzMCZDDDDDLPPPPPRQ~^^QRPLD",
"*-,20tdlMCDDDDHPPIRRRRW~)``^UCnd02,20tdlMCDDDDHPPIRRRRW~)``~IZMM",
"#$*,60ugbMBBBBCSGJJJJJT~_'`^PMhu7>-;20ugbMBBBBCSGJJJJJT~_'`~PVnn",
"++#-,60udkcbbbbbbmmmmmAY~_)~PMht6;%*,60udkcbbbbbbmmmmmAY~_(!PMnj",
"OO+$-,29qtaaaaaaaadaagcNY~~QDMht2-##*,29qtaaaaaaaadaagcNY~~WDMzj",
"oo++$*;,26799999000990acATWRDnht2*++#&;,26799999000990acATWUZMzj",
".ooO+#$&;:,<<,,,,<,,,20gmJRPZnht2*+o+#$&;:,<<,,,,<,,,20gmJRPZMzz",
"..ooO+@$&=:::::::::==,9amJRPZnht2*+.o+@$&=:::::::::==,9amJRPZMzz",
"....oO+$&=:::::::::==,9dmJRPZnht2*O .O+$&=:::::::::==,9amJRPZMnz",
".....o+$&;:::::::::::,0dmJRPZnht2*O  o+$&;:::::::::::,0dmJRPZMzz",
".....o+#&;:::::::::::<0amJIPZnht2*O  o+#&;:::::::::::<0amJPPCMnz",
".....o+#&;:::::::::::,0abGPLCnht2*O  .+#&;:::::::::::,0abGPLCnnz",
".....o+#&;:::::::::::,9abSPDCnht2*O  .+#&;:::::::::::,9abSPDVnnz",
".....o+#&;:::::::::::,9abCHDVnht2*O  o+#&;:::::::::::,9abCHDVnnz",
".....o+#&;:::::::::::,9abBDDVnht2*O  o+#&;:::::::::::,9abBDZVnnz",
".....o+#&;:::::::::::<9abCDDVnhu2*O  .+#&;:::::::::::<9abCDZVnnz",
".....o+#&;:::::::::::<9abCDDVnhu2*O  .+#&;:::::::::::<9abCDZVnnz",
".....o+#&;:::::::::;:,7acBSZVnft2*O  o+#&;:::::::::;:,7acBCCVnzj",
"....oo+#%&;;;;;;;;;==:2rgbMMMlfr2*O  o+#%&;;;;;;;;;==:2rgbMMnzjj",
"...ooO+#$%&&&&&&&&&&&&,9tgkkhhde2%O..O+#$%&&&&&&&&&&&&,9tgkkhhhh",
"..oOO++@###$#########$*,4qyaddu0,$OoO++@#############$*,4qyadddf",
".XoO++@+++++++++++++++#$->29ere7,$+o++++++++++++++++++#$->29etui",
"ooO+++++OoooooooooooooO+@#-,7002;#+O++++OOooooooooooooO+@#-,70ee",
"OO+++++Ooo..............o+#-,22,-#+++++Ooo..............o+#-,677",
"++++++OOo................O+$-;>;%#++++OOo................O+$->,,",
"@@@++Ooo.................o+@$%&%$#@++Ooo.................o+@$%*-",
"#@@+OoX..................oO++#####@+OoX..................oo++##$",
"##@+Oo....................oO++@###@+Oo....................oO++@@"
};
