/* XPM */
static char *_c43693b0b62474684d0cbc49955a258iAEXGWdSnxP0Pnz9[] = {
/* columns rows colors chars-per-pixel */
"64 64 69 1 ",
"  c #3E2731",
". c #3F2831",
"X c #402731",
"o c #432931",
"O c #4B2C32",
"+ c #522F34",
"@ c #563134",
"# c #5C3435",
"$ c #633736",
"% c #653837",
"& c #693937",
"* c #633B38",
"= c #6D3B38",
"- c #733E39",
"; c #6D403A",
": c #75403A",
"> c #7B443C",
", c #77483D",
"< c #7C493E",
"1 c #80473D",
"2 c #81493E",
"3 c #864F41",
"4 c #875041",
"5 c #8C5443",
"6 c #925744",
"7 c #945C46",
"8 c #9B5D47",
"9 c #9A5F48",
"0 c #9C624A",
"q c #A1644B",
"w c #AC674C",
"e c #A76C4F",
"r c #AD6B4E",
"t c #B66E4F",
"y c #AD6F51",
"u c #B66E50",
"i c #B86F50",
"p c #AF7152",
"a c #B17253",
"s c #BA7252",
"d c #BC7453",
"f c #B97655",
"g c #BD7654",
"h c #B47856",
"j c #B87A57",
"k c #BE7855",
"l c #BF7D59",
"z c #C07956",
"x c #C37D59",
"c c #C47F5A",
"v c #C6815B",
"b c #C7825C",
"n c #C2845D",
"m c #C5845D",
"M c #C8835C",
"N c #C8845D",
"B c #CE8B61",
"V c #CC8C62",
"C c #D08E63",
"Z c #D18F64",
"A c #D29064",
"S c #D49366",
"D c #D59466",
"F c #D79769",
"G c #DB9B6B",
"H c #DC9C6C",
"J c #E0A26F",
"K c #E3A471",
"L c #E4A672",
/* pixels */
"isdzcbbcksittiiiiiiiiiiiiiiiiiiiiiiiiiiiiiiiiiiiiiittisgxMBSGJLL",
"tuskxvvczdsiissssssssssssssssssssssssssssssssssssssiisdkcNVDGJKL",
"wrtskxvxzgdssssssssssssssssssssssssssssssssssssssssssdkxbBZDGHJJ",
"88qrskxcxzzzzzzzzzzzzzzzzzzzzzzzzzzzzzzzzzzzzzzzzzzzzzcNBADFGGGG",
"2350rskxcccccccccccccccccccccccccccccccccccccccccccccvNBAFGGFDDS",
"*=,5qrskxxvvvvvvvvvvvvvvvvvvvvvvvvvvvvvvvvvvvvvvvvvvvbNCFGHGDZVB",
"O@*<6qrsfkllllllllllllllllllllllllllllllllllxxxxxxxllxmVDGGFABNM",
" o@;269qeypaaaaaaaaaaaaaaaaaaaaaaaaaaaaaaaaaaaaaaaaaaajnVDFABbcx",
" XO#;<35790000000000000000000000000000000000qqqqqqq000ehnVCBNxkg",
" XoO#*=:<2344444444433333333333333444444444455565554447ejmNNckds",
"  XXoO@$&:::>>::::::::::::::::::::::::>>>>>>1112111>:>40axbvzdsi",
"     XO@$&--:-::::------------------------::>>>>>>>:-:30plvczsit",
"      O+$&--::::::::-------=---------------::>>>>>>:-:30plvczsit",
"..   XO@$=-::>>>>>>:::-------------------:::>>>1>>>::>30alvczssi",
".    XO@$=-:>>>>1>>>:::---------------:::::::>>>>>>:-:40alvczssi",
"..   XO@$=-:>>>111>>:::-------------------::::>>>>::-:30alvczssi",
"     XO@$=::>>>111>>:::--------------------::::::::--:30alvczssi",
"     XO@$=::>>>>1>>>:::-----------------------::::---:30alvczssi",
"     XO@$=::>>>>>>>>:::------------------------------:30alvczssi",
"     XO@$=:::>>>>>>>:::------------------------------:30alvczssi",
"     XO@$=-:::::>::::::::----------------------------:30alvczssi",
"     XO@$=-:::::::::::::::--------::::::::::::::::---:30alvczssi",
"     XO@$=--:::::::::::::::-------::::::::::::::::---:30alvczssi",
"     XO@$=---:::::::::::::::-------:::::::::::::::---:30alvczssi",
"     XO@$=---::::::::::::::::-------::::::::::::::---:30alvczssi",
"     XO@$=--::::::::::::::::::-------:::::::::::::---:30alvczssi",
"     XO@$=--:::::::::::::::::::------:::::::::::::---:30alvczssi",
"     XO@$=--:::::::::::::::::::------:::::::::::::---:30alvczssi",
"     XO@$=--:::::::::::::::::::------:::::::::::::---:30alvczssi",
"     XO@$=--:::::::::::::::::::------:::::::::::::---:30alvczssi",
"     XO@$=----::::::::::::::::--------::::::::::::---:30alvczssi",
"     XO@$=-------------------------------------------:30alvczssi",
"     XO@$=------::-----------------------------------:30alvczssi",
"     XO@$=------::-----------------------------------:30alvczssi",
"     XO@$=------:-::---------------------------------:30alvczssi",
"     XO@$=------::::------------------------::::-----:30alvczssi",
"     XO@$=-----::::::---------------------:::::::----:30alvczssi",
"     XO@$=-----::>>::----------------------::>>::----:30alvczssi",
"     XO@$&-----::>>::---------::::--------::>>>:::---:30alvczssi",
"     XO@$&=----::::::------::::::::::-----::::::::---:30alvczssi",
"     XO@#&=----:::::-----:::::>>>>::::------::::::---:30alvczssi",
"     XO+#%==-------------:::>>>>>>>::::-------::::---:30alvczssi",
"     XO+#%&=-------------:::>>>11>>>:::----------:---:40alvczssi",
"     XO@#%&=--------------::>>1111>>::-----------:---:40alvczssi",
"    XoO@#%&=--------------::>>1111>>::-----------:---:40alvczssi",
"   XXoO@#%&=--------------::>>>11<>>::----------:::--:40alvczssi",
" XXXXoO@$%==---------------::>>>>>>::---------:::::-->40alvczssi",
"XXXXoOO@$&==---------------:::>>>>>::-------:::::::-->40alvczssi",
"oooooOO@$&=-----------------::::::::-------:::>>>>::-:40alvczssi",
"oooooO+@$=---------------------::----------::>>>>>>::>40alvczssi",
"oOOOOO+#%=--------------------------------::>>>111>:::40alvczssi",
"ooOOOO@#%=--------------------------------::>>1111>::>40alvczsit",
"ooOOO+@#&=---------------======----------:::>>1111>::>40alvczsit",
"oOOOO+@$%=-------------===&&&&===---------::>>>>>>>:-:30plvczdsi",
"OOOOO@@#$&============&&&%%$$%%&&&========-::::::::-=:39ykxczgds",
"OOO++@@@#$$$$$$$$$$$$$$$########$$$$$$$$$%%&=======%%=<7efxcxzzk",
"O++++@@@@@@@@@@@@@@@@@@@@++++++@@@@@@@@@@@@@#######@@$,5qskxcxcc",
"++++@@++OOOOOOOOOOOOOOOOOOOoOOOOOOOOOOOOOOOOOOOOOOOOO@;39rskxvvb",
"@@@@++OOoXXXXXXXXXXXXXXXXXXXXXXXXXXXXXXXXXXXXXXXXXXXXO*<6qrskxvb",
"@@@++OOoX.          XXXXXXXXXXXXXXX                  o#;26qrskxc",
"@@+OOOoXX           XXXoXXooooXXXXXXX                XO#;<50rskz",
"@@+OOoXX           XXoooooooooooooooXX               XoO@*,5qtsd",
"@@+OOXX            XoooooooOOOooooooXX                XXo@=38rus",
"@@+OoX            XXoooooooOOOooooooXX                   O*28wti"
};
