/* XPM */
static char *_139d98b761048549f95066040c6cbb63c4tIKeVRpedtOot[] = {
/* columns rows colors chars-per-pixel */
"64 64 66 1 ",
"  c #5C3335",
". c #643636",
"X c #683736",
"o c #673837",
"O c #6B3936",
"+ c #6C3B38",
"@ c #733A36",
"# c #7C3D35",
"$ c #733E39",
"% c #7A3F38",
"& c #764039",
"* c #7B423A",
"= c #803D35",
"- c #844137",
"; c #8B4336",
": c #82463A",
"> c #8B4638",
", c #85483B",
"< c #8C4C3B",
"1 c #914636",
"2 c #904837",
"3 c #934C39",
"4 c #984F3A",
"5 c #95523C",
"6 c #9B543D",
"7 c #9C553D",
"8 c #9E583E",
"9 c #A0573D",
"0 c #A25A3E",
"q c #A65B3E",
"w c #A75B3E",
"e c #AE5F3F",
"r c #AF603F",
"t c #B3623F",
"y c #B5633F",
"u c #B7643F",
"i c #9F5A40",
"p c #A05940",
"a c #A25C41",
"s c #A45C41",
"d c #A45F44",
"f c #AA5F41",
"g c #A66044",
"h c #AA6143",
"j c #AF6140",
"k c #AB6445",
"l c #AD6444",
"z c #AE6545",
"x c #B36340",
"c c #B26443",
"v c #B66440",
"b c #B96742",
"n c #BC6740",
"m c #B76844",
"M c #B66946",
"N c #BA6842",
"B c #BE6941",
"V c #BC6943",
"C c #B86844",
"Z c #C06A41",
"A c #C46B41",
"S c #C76E43",
"D c #C16C44",
"F c #C86E42",
"G c #C86F44",
"H c #CC7042",
/* pixels */
"$$$$$$$$$$$$$$$$$$$$$$$$$$*:<6quSHHSuq766667765<,*$$$$$$$$$$$$$$",
"$$$$$$$$$$$$$$$$$$$$$$$$$$*:<6qvAHHZyq766667765<,*$$$$$$$$$$$$$$",
"$$$$$$$$$$$&****&$$$$$$$$$*:<6qxZFFZxq766667765<,*$$$$$&****&$$$",
"$$$$$$$$$$&**::**&$$$$$$$$*:<50jNZZbj0766667765<,*$$$$&**::**&$$",
"$$$$$$$$$$**,<<,**$$$$$$$$*:<50fcmmcf0766667765<,*$$$$**,<<,**$$",
"$$$$$$$$$$*:<33<:*$$$$$$$$*:<57shllhs8766666665<,*$$$$*:<<<<:*$$",
"$$$$$$$$$$*,<55<,*$$$$$$$$*:<56psggsp7666666665<:*$$$$*:<<<<:*$$",
"$$$$$$$$$$*,<55<,*$$$$$$$$*:<367paapi7666666553<:*$$$$**,<<,*&$$",
"$$$$$$$$$$*,<55<,*$$$$$$$$*:>2467iii77666665442>:*$$$$&**::**$$$",
"$$$$$$$$$$*,<55<,*&$$$$$$$%*;>2466777666666442>;*%$$$$$&*****&$$",
"*******&$$*:<33<,**&$$$$$$$%-;>24566666666542>;-%$$$$$$&********",
",,,,,::**&**,<<<<,:**&$$$$$%##-;<44444444442;-##%$$$$$$***:::::,",
"<<<<<<<,**&**:,<<<<,**$$$$$@@@#-;2333333332;-#@@@$$$$$&*:<<<<<<<",
"5555553<:*&&&**,<3<<:*$$$$$+OOO#->11111111>-#OOO+$$$$&*:<5565555",
"6666665<<:*&&&*:<<<<:*$$$$$+O.O@#;;;;;;;;;;#@O.O+$$$&*:<69000877",
"77777665<<:**&**,<<,**$$$$$+ooOO@##======##@OOoO+$$**,<6qrtjfsap",
"777776655<<,**&**::**&$$$$$+++OOO@@@@@@@@@@OOOo++$&*,<6qtnBNmksd",
"66666666653<:*$$&***&$$$$$$$$$+OOX........XOO+$$$$*:<57enSSDClkg",
"66666666663<:*$$$$$$$$$$$$$$$$$+O..........O+$$$$$*:<40tBSGDClkk",
"66666666553<:*$$$$$$$$$$$$$$$$$+oo........oo+$$$$$*:<49ebDDBmlkk",
"66666665442>:*$$$$$$$$$$$$$$$$$$+oooooooooo+$$$$$$*:>26qxmCmmlkk",
"6666666442>;*%$$$$$$$$$$$$$$$$$$$$$++++++$$$$$$$$$%*;>47sklllkkk",
"666666542>;-%$$$$$$$$$$$$$$$$$$$$$$$$$$$$$$$$$$$$$$#=;>47adggddd",
"44444442;-##%$$$$$$$$$$$$$$$$$$$$$$$$$$$$$$$$$$$$$$%##;<57ippppp",
"3333332;-#@@@$$$$$$$$$$$$$$$$$$$$$$$$$$$$$$$$$$$$$$@@@#:<4666666",
"111111>-#OOO+$$$$$$$$$$$$$$$$$$$$$$$$$$$$$$$$$$$$$$+OO@#;>233333",
";;;;;;;#@O.O+$$$$$$$$%%*****&$$$$$$$$$$$$$$$$$$$$$$+O.O@#;;;;;;;",
"=====##@OOoo+$$$$$$%%**::::**&$$$$$$$$$$$$$$$$$$$$$+ooOO@##==###",
"@@@@@@@OOO+++$$$$$$%-;;><<<,**$$$$$$$$$$$$$$$$$$$$$+++OOO@@@@@@@",
"......XOO+$$$$$$$$$%-;>233<<:*$$$$$$$$$$$$$$$$$$$$$$$$+OOX......",
".......O+$$$$$$$$$$%-;>233<<:*$$$$$$$$$&****&$$$$$$$$$$+O.......",
"......oo+$$$$$$$$$$%-;;><<<,**$$$$$$$$&**::**&$$$$$$$$$+oo......",
"OOOOOoo+$$$$$$$$$$$%%*:::::**&$$$$$$$$**,<<,**$$$$$$$$$$+ooooooo",
"$$$$$$$$$$$$$$$$$$$$$%%*****&$$$$$$$$$*:<33<:*$$$$$$$$$$$$$$$$$$",
"***&$$$$$$$$$$$$$$$$$$$$$$$$$$$$$$$$$$*,<55<,*$$$$$$$$$$$$$$$$$$",
",,:**&$$$$$$$$$$$$$$$$$$$$$$$$$$$$$$$$*,<55<,*$$$$$$$$$$$$$%%*:%",
"<<<,**$$$$$$$$$$$$$$$$$$$$$$$$$$$$$$$$*,<55<,*$$$$$$$$$$$$$%:;;;",
"553<:*$$$$$$$$$$$$$$$$$$$$$$$$$$$$$$$$*,<55<,*&$$$$$$$$$$$$*-;;;",
"553<:*$$&***********&$$$$$$$$$$$$$$$$$*:<33<,**&$$$$$$$$$$$*-;;;",
"<<<,*&&&*:::::,,,::**$$$$$$$$$$$$$$$$$**,<<<<,:**&$$$$$$$$$%-;;;",
",,:**&&*:<<<<<<<<<<,*&$$$$$$$$$$$$$$$$&**:,<<<<,**$$$$$$$$$%%**-",
"****&&*:<5565555553<:*$$$$$$$$$$$$$$$$$$&**,<3<<:*$$$$$$$$$$$%%%",
"$$$&&*:<69000877665<,:*&$$$$$$$$$$$$$$$$$$*:<<<<:*$$$$$$$$$$$$$$",
"$$$**:<6qrxjfspi8765<<:**&$$$$$$$$$$$$$$$$&*,<<,**$$$$$$$$$$$$$$",
"$$&*:<6qtnBNchsai7655<<,**$$$$$$$$$$$$$$$$$**::**&$$$$$$$$$$$$$$",
"$$*:<57enSSDmlgai766653<:*$$$$$$$$$$$$$$$$$&****&$$$$$$$$$$$$$$$",
"$$*:<50tBSSDmlgai766665<:*$$$$$$$$$$$$$$$$$$$$$$$$$$$$$$$$$$$$$$",
"$$*:<60evBBNchspi777765<,*$$$$$$$$$$$$$$$$$$$$$$$$$$$$$$$$$$$$$$",
"$$*,<57qetxjfspi7767765<,*$$$$$$$$$$$$$$$$$$$$$$$$$$$$$$$$$$$$$$",
"$$*,<5700qqq08777666665<,*$$$$$$$$$$$$$$$$$$$$$$$$$$$$$$$$$$$$$$",
"$$*:<567777777666666665<:*$$$$$&************&$$$$$$$$$$$$$$$$%%%",
"$$*:<345666666666666553<:*$$$$$**::,,,,,,::**$$$$$$$$$$$$$$%%**-",
"$$*:>244566677666665442>:*$$$$&*,<<<<<<<<<<,*&$$$$$$$$$$$$$%-;;;",
"$$%*;>2446666666666442>;*%$$$$*:<3555555553<:*$$$$$$$$$$$$$*-;;;",
"$$$%-;>24566666666542>;-#$$$&*:,<5667777665<,:*&$$$$$$$$$$$*-;;;",
"$$$%##-;244444444442;-##%$&**:,<5678ippp8765<<:**&$$$$$$$$$%*-;;",
"$$$@@@#-;2333333332;-#@@@$**,<<5567iaaaai8655<<,**$$$$$$$$$%%**-",
"$$$+OOO#->11111111>-#OOOO$*:<356668paddap766653<:*$$$$$$$$$$$%%%",
"$$$+O.O@#;;;;;;;;;;#@O.oo$*:<56777iaaddap766665<:*$$$$$$$$$$$$$$",
"$$$+ooOO@##======##@OOoO+$*,<568ipaaaaapi777765<,*$$$$$$$$$$$$$$",
"$$$+++OOO@@@@@@@@@@OOOo++$*,<57iaaaaaapi7767765<,*$$$$$$$$$$$$$$",
"$$$$$$+OOX........XOO+$$$$*,<57paggsai877667765<,*$$$$$$$$$$$$$$",
"$$$$$$+Oo.        .oO+$$$$*,<57psggda8766667765<,*$$$$$$$$$$$$$$",
"$$$$$$$o.          .o$$$$$*,<57adggdp7666667765<,*$$$$$$$$$$$$$$"
};
