/* XPM */
static char *b8764a067d72444aada7e0958bebfa94WsebGxr5T9w7zrQF[] = {
/* columns rows colors chars-per-pixel */
"64 64 158 2 ",
"   c #161E2D",
".  c #1E1E2B",
"X  c #2E1F29",
"o  c #371824",
"O  c #3B1D23",
"+  c #16212F",
"@  c #1C222E",
"#  c #1F2531",
"$  c #2C2326",
"%  c #23242D",
"&  c #2A252B",
"*  c #2D292D",
"=  c #342326",
"-  c #3C2324",
";  c #372A26",
":  c #3D2C26",
">  c #342428",
",  c #392628",
"<  c #362A29",
"1  c #392B28",
"2  c #3F3025",
"3  c #222631",
"4  c #2A2F3A",
"5  c #3C2E33",
"6  c #37383F",
"7  c #44251F",
"8  c #47291F",
"9  c #4C2D1D",
"0  c #502F1A",
"q  c #4E311D",
"w  c #563617",
"e  c #583717",
"r  c #573817",
"t  c #5C3B16",
"y  c #53341C",
"u  c #58371A",
"i  c #56391D",
"p  c #5B3C1A",
"a  c #603F16",
"s  c #603F1A",
"d  c #432521",
"f  c #452A22",
"g  c #4A2C21",
"h  c #453225",
"j  c #4D3222",
"k  c #4D3927",
"l  c #40302A",
"z  c #4D3328",
"x  c #47382B",
"c  c #4E3C29",
"v  c #533421",
"b  c #553B22",
"n  c #5A3B21",
"m  c #513629",
"M  c #533B2E",
"N  c #583C2C",
"B  c #412E30",
"V  c #463334",
"C  c #493738",
"Z  c #453B3D",
"A  c #4A3A3B",
"S  c #523B32",
"D  c #593F30",
"F  c #603F20",
"G  c #5E411C",
"H  c #654316",
"J  c #684715",
"K  c #674817",
"L  c #6B4916",
"P  c #63431A",
"I  c #68471A",
"U  c #67481A",
"Y  c #6C4B1A",
"T  c #714F1B",
"R  c #6F501C",
"E  c #74521C",
"W  c #79561D",
"Q  c #7B591F",
"!  c #5E4123",
"~  c #54402A",
"^  c #5D422C",
"/  c #574333",
"(  c #5B4333",
")  c #55413A",
"_  c #59453C",
"`  c #624421",
"'  c #664924",
"]  c #6A4B22",
"[  c #62462D",
"{  c #664A2F",
"}  c #684D2C",
"|  c #714F21",
" . c #6F5124",
".. c #745321",
"X. c #795722",
"o. c #765826",
"O. c #7D5B22",
"+. c #745629",
"@. c #7E5E29",
"#. c #604632",
"$. c #6B4F35",
"%. c #624A3A",
"&. c #6A523D",
"*. c #71573F",
"=. c #373A42",
"-. c #3C3E43",
";. c #464143",
":. c #494142",
">. c #4F4648",
",. c #574947",
"<. c #5F5556",
"1. c #624E45",
"2. c #675142",
"3. c #685345",
"4. c #6F5947",
"5. c #6B5649",
"6. c #735B44",
"7. c #715D4C",
"8. c #635655",
"9. c #625857",
"0. c #6B5B56",
"q. c #645B5B",
"w. c #76614D",
"e. c #756253",
"r. c #756358",
"t. c #6D6565",
"y. c #6F6967",
"u. c #66676A",
"i. c #6F6869",
"p. c #736760",
"a. c #736C6B",
"s. c #707174",
"d. c #7A7373",
"f. c #767779",
"g. c #7F7979",
"h. c #805E23",
"j. c #805F28",
"k. c #846124",
"l. c #886626",
"z. c #86652A",
"x. c #86776B",
"c. c #867971",
"v. c #847D7B",
"b. c #8F837C",
"n. c #928781",
"m. c #958B85",
"M. c #948F8F",
"N. c #988E89",
"B. c #9C938D",
"V. c #A39992",
"C. c #A69E9A",
"Z. c #A4A19F",
"A. c #A9A29D",
"S. c #ADA6A3",
"D. c #B2ACAB",
"F. c #D7D4D2",
"G. c #DBDAD9",
"H. c gray96",
/* pixels */
"H.B.^ y 8 7 9 9 0 d O 9 0 g f y K p 8 t s Y p y H 0 7 g a t e :   l H t t g P J v O v E J H f s Q E J t g P H | g O 9 y 9 7 w w ",
"G.c.w y 8 7 0 0 0 d d 0 y 0 8 0 t t 8 y ] P 9 9 p y 9 y H e w : + f t p Y 9 H H y O n W J H f P W T a s 0 H t ..v O 9 y 9 f i w ",
"F.x.y q 8 8 y y f d y u P n 8 0 t p f y ] P f 9 w s | 0 H t w : + 1 p t Y g P H v O v T H t f X.W L J u y H I X.v y y 9 d 8 i i ",
"A.0.y y 8 f u y d d s T T p 0 u H t d y T Y y 9 w P O.j a t e : + < w p T q H J v O v T H y f j.W J a 0 9 J J Y u 9 t y O 8 i r ",
"y./ 0 y 8 9 u y d d P O.T u y t H t f I Y I y 9 e Y O.v I P t : + , w u ` p I J v O b E t w f o.h.J u 0 9 H H E u - i i 8 y i r ",
"a./ 0 q 8 9 p i f d I O.T s y u H p g ..s a y 9 P O...y Y P p : + 1 w w v H J J n f n ..t y d ] h.T s 9 y H H h.v O y y y P G G ",
"y./ q w 9 f p s 9 d Y T Y P 0 y P 9 f ] P H y f T k.P g s u e : % f e y j H L L Y b n W J i d +.L Q | 7 0 J L O.v O i y y U G t ",
"t.S q q 7 9 t P f f ` G P n g v p - d ' ` p q v X.h.H g p u y ; : r u y 0 H J J Y n v Y G m d ] I ..' - g ! G G f O w w h i G w ",
"y.6 $ $ = g G p f & % % % % % % % . @ % % % X } O.t I g t r 1 @ : t H y j I J a H v , * % % % % % * % @ % % % % > o v h @ % % % ",
"g.) $ $ $ & < < & @ @ @ @ @ @ @ # . @ @ @ @ 3 < h s T 9 p t < + : t H w j T L a g & % @ @ @ @ @ @ @ @ # @ @ @ @ 3 < < % @ @ 3 4 ",
"g.;.$ % X : P ` ! & % % @ % @ % % # % % % @ 1 v i P T g w w < + : t J G 9 v P H p g > % @ @ @ @ @ % @ % % # 3 % X +...h @ @ % 3 ",
"g.) q - $ 9 I T ] j q ! i h f b ' n - y v : d v P I T 9 y w < + q H J J t j P J H y g n p j - 8 h y p b z p p q d j.O.P i f b j ",
"d.) y q d 0 I T T v I T K y 9 s T I 9 a a d d v P L T f w w ; + k J H H H 0 ..I H p v L H w 7 0 t a J P n J J a d Y k.W y y G w ",
"d.) y 0 d y J E ..v | Y K y y P T Y g s s s g v I T Y 9 y w q < h H H e H q j.Y H p y L J y - y t H H y n J H y d p k.O.q q t w ",
"s./ 0 0 7 0 L T ' v I J H u u I T I 9 s T L y 0 Y E a 0 p t H h ; G H a a v X.Y a y y T H t d y H J J y v L K d d t k.O.y q t r ",
"a./ w 0 d 0 Y | j g t H H y u Y E s g a T L y j Y E a j H H H f : t L H H j ] Y H q y Y P t d p H J H t n J s d f t k.k.t q t r ",
"a.) w 9 7 9 Y Q s f u a J w y T E H g Y L J y v Y T H 0 P J t : - a L L P g Y T J n j I s a d s L a t s u I y d O s l.h.a 9 t u ",
"0.S 0 0 7 9 T h.P f y H J y u L E s f Y L J y y T T H 9 H H t : : a J a y v ] L L u 0 Y s a f s L t s P n L a g O t l.l.t 0 p i ",
"q.S 9 0 9 q Y k...g w a H y y L T d d Y L H y v Y I P 9 u e e : : t L H j j.T T L u F h.Y a d s L H H s n H H T g y z.h.y 9 ` $.",
"q.M y y f 9 J W k.g 0 a a 9 u T | d d Y L I y u Y p 0 9 a e e : : a L a j j.T T T y F h.Y I f I a H s g v H H E j u l.j.w j p ` ",
"<.S y 0 8 0 s I k.z y t a y y T | d f I J J y y L P 8 9 H t r : j J L P j j.T L L y F j.T a g s H J p g v I H E j O.k.Y p 9 G u ",
"q.m y y 8 0 t P h.m y t a e y T E p 0 P J J y v Y K d f H t r : * j t H g j.E H J y F h.T I d s J L s g g u Y E j l.k.H t y P w ",
"9.S y u f v P P @.g y e a u y T E s 0 P L J y v Y I 7 9 G t r :   < t K g h.Q Y H y ` j.T H f u H J t f d 9 H T j z.k.J t i P w ",
"q.N y y 9 v I P h.g w e a y y E E u 9 P J L v u L K 9 p H p n 5 + < t P g j.h.T J u P l.T I f P L L P y 9 y s T z z.O.H t i P w ",
"9.D y y 8 v P P j.g p t a y i E E y 9 t J L y v J P y H J p N 2 + < t P g k.O.E I y ` h.T H f ..E L L s 9 t P E j z.O.J G j U r ",
"9.m 9 y 9 q P I j.m ] P a y p W E s g u H L u y J s v H J p i f . < t H v ..Y T I 9 F h.T H f T E I J p 9 H Y Y j z.O.H t w P r ",
"<.M y y 9 9 p ..h.m +.P H u s E Y | j t H L v y H s v H H t e : + < p H P g K J u g i L T H f s E J t t 9 L E t d z.k.p y P U w ",
"<.N 0 w 9 9 t ..X.z | s a p n T L | j a H Y p y H u j H J t w : + < w H P g ..T y v F J L J f y T K P t 9 L W p d z.k.y d v U w ",
"q.N 0 w 9 9 K E ..j ..P P u 9 P E ..j s H L v v L ' ; 9 H H t :   < e a s d : ! y ` Q J H H d s L a H t y I W p d z.h.p - 9 P y ",
"q./ 9 w 9 y I | ..g s T T i 9 P Q X.y t H L u v Y ] & f H H t : + < t a y d % j 9 ] h.J H p d P J a s p y L W p d z.h.y 7 9 s t ",
"f._ 0 y 9 y Y ..| g y | Y u 9 a W Q 0 t H H u v P ~ % ; P J H h + 1 t a 9 $ % 9 9 ] h.J H w d s H w H t y I E t f @.Q y d g t p ",
"a.) 0 y 9 9 P E X.g u E Y y 9 s E h.v a H J u g j < @ % h P J h + 1 t t d % + ; d P E J J t d P t y K I b Y U y d @.W y d g t y ",
"9.m 9 w 9 q p I X.g t ..Y w 9 t E X.0 s J H y , ; h h $ % G L h + 1 t t < , k 1 $ v L J H H f t t w t p i W p y d o.W i d g s e ",
"<.m 0 0 8 9 t J W z t ..E p 9 P T | 0 a J J y < h t t 7 $ G J h + < p p & f E c @ ~ T J J H 7 y t e v d b E t e f ..W i d 9 t w ",
"q.S 9 y 9 9 G Y ..9 t ..E w y P ] v 8 a H H y z ~ 9 f : 2 r H q + < t t * 1 ' x . ' O.J J H f y L I y d i Y t H y ] R p d 9 i e ",
"d.,.9 9 d 9 t Y ..j t W E i y L ` v f t H J y ' o.; * < G L G f + ; t t 1 * < < - ` W I H H d P W T s j y I p t G g i p g 8 9 y ",
"v.S v f d 9 t L O.g p E E w i H s F g y J J y ] O.K G q H J t : + < t a P n P P y i T W J K g p X.E E Y 9 H I H g O u p v t f i ",
"D.0.0 9 d y J L O.v p E E w y H Y ..y a J Y i ] O.L G q H J t : + f a t P v P H Y s u Y T I d d X.W E | y P P e d O n p u P n N ",
"A.8.y u 9 y J Y O.g t K I p w H Y X.y a H Y p ] Q H 0 q H J t : + 2 H p P 0 P J L s 9 t Y T f O X.E E ] y I I P f O p v v H ` %.",
"M.1.y y 9 y H Y O.v t s J w y J P ` 0 a P E P Y Q G 8 G J G t : + 1 t a H j P J T s 9 t J Y f O X.W W ..v Y K K f O i y y H n 2.",
"i.S y y 8 u L Y Q q p H J w y P s v 0 e a W I ' X.H p t I t f & + 1 t H P g P J J t y s J H d y O.W W  .i Y T K f j P y y P N 5.",
">.z 0 9 8 u I H W h w G J y y J s v y w a W ' ` W L Y g a p < @ + < t H H v P J J p y J J y d P k.W E  .q P R L g u Y G y P ^ 7.",
",.m 0 9 f u a s E q w G J p y H s v y y a Q ' F ..L Y g H t , + & f t H t g t J H u v J H r d P E W W U 9 G E Y f u T ` 9 i [ r.",
"A z 8 9 9 y a a ' 8 9 r p q j i j g v q i X.] n E T Y q a p ; + : w t s f f t J a 9 j p p q , b i U } k 8 G U G f s T N % f / p.",
"A < ; 7 d g s i < # % % % % @ % @ % % % % } ` f U O.I g G t < + : w t P d d y J t g = % % % @ % @ # % @ @ % % % > } ~ @ @ @ 6 u.",
";.< = = = % * % @ @ % @ @ @ @ @ @ @ @ @ @ * & % ~ O.U g H t < + : w t H d d y H z % % # @ @ @ @ @ @ @ @ @ @ @ @ @ < * @ @ @ =.i.",
"Z < $ 8 f % % % % % @ @ % % % % % @ % % % % , 7 U O.I 9 G e < @ : w t a d d u H y d 1 % @ @ @ % % % % % @ % # @ % ] ~ + @ @ -.s.",
"Z < = q f b ] p G & @ @ ~ G j G i h i G G  .` - ! E y 9 t t < @ : r t H - O i H y d v t 9 , O n G ]  .i h i q q - +.U : + < ,.f.",
"S f 9 y 9 n W H J ! n j Y ` y J P 9 w P K E ` - i ..f 8 p i : @ f t H a d - p t 0 f y t y O O P K R W G q H w r 7 v w q f j _ b.",
":.m 0 y 8 ! W t H n J t Y U y U P y y P K R G d n W f 8 p w < + : a H I d ` P u g f y t y O d P G Y T r q J t U f o y y j t &.b.",
"A z 0 y 8 U ..w H f H P Y G b P t y 0 P H Y n d u T u 9 p w 1 + : t L a f ' P u 9 v I a y O O s J T J y y P t E z v U i y H *.n.",
"C g 9 9 f p E P P f H Y I w i P t u y a H E ! d v L H j P p < + : H H H d v y u 0 F E H u y d s E J G y q H t R g G I p w P 6.m.",
"C j 9 9 7 y Y W P g H T Y p y t s t v I Y Q ` g F H a 0 P p <   < w K P d v f s y F E H s H f s E P r q q J H J j i J i q K 4.N.",
"A f 9 9 7 y Y Q H g P E E w q t s y y s h.E y F E H s g v u < @ @ 1 t P f u 0 p v ` T I I H f I W U i w q L K U f i J i q U 4.B.",
"C g j 9 7 w R W P g P T Y u y K P j u J Q E y F T y 0 f v u , @ @ 1 a H y 0 f s y ` T s ] I g | E J J t q L J K f G J w q H w.B.",
"C g q y 9 y R O.I v I I J u y K P y n O.E J y n T t a 0 n u 1 @ @ : t G e 9 d s y ` T s T I f T Y J J G q J J P f i P i w P w.V.",
"V g y 0 9 y T Q I ] Y H a 0 y H u 0 i h.T y f p H t P 9 p r y ; + < t G H 9 f t u i Y T ] I f ' L L Y p y L L P f i P w q G w.V.",
"V m j 0 9 0 J T ..s L H t 9 u a y v | X.Y j O v P t H j q y r 2 + < r G H 8 - G H i ` X.Y J g p J L L p g L E t f p U y q P w.Z.",
"B m 0 y 9 0 J L X.v H H a y y H p y h.| H y O 0 a a K v p w w ; + < w P H d O H L w F O.L H d u J J L t g Y h.t d p U i q U w.A.",
", m v w 0 y H L T g s H a y u H t n ] P H u y y y a H v H H G q + : p P K d q H L y n E E J f g P L L t v W E P d p U i g p w.S.",
"5 z y u 0 u H a s f a H t 9 u H s v 0 t H H t y 0 I Y v H J H h + 1 t H K f s J J p 0 Y O.I d O t L L t n k.L H f t U i - q e.S.",
"5 m N [ #.D } #.{ S ' Y t 0 y a t y y P J J u 7 y T O.v H H H q   < t H s d a J J y y J T ' d O s L I u n h.I H f G P w d 9 e.D.",
"5 _ 1.6.3.3.6.3.3.1.$.' a 9 9 e w w y a H H y O n W ..0 w G t h % < t H y 7 t H t 0 y a t I d O t L a 9 n h.H a 8 t t 9 - g 7.C.",
"5 v y s n n I u n u P J t 9 9 e w w H H t w 9 9 y u u y y r y w f < w w w 7 y y w t a e u y d - t L a 9 b O.t P d y w 9 d g U ( "
};
