/* XPM */
static char *d081d20271ce4ffbb5a6e46223c3a2fet0HhK2RypI9FwQI5[] = {
/* columns rows colors chars-per-pixel */
"64 64 254 2 ",
"   c #000000",
".  c #0B0100",
"X  c #130200",
"o  c #1B0200",
"O  c #140901",
"+  c #1D0B01",
"@  c #240200",
"#  c #2C0200",
"$  c #230B01",
"%  c #2B0B01",
"&  c #330200",
"*  c #3C0200",
"=  c #390D01",
"-  c #281303",
";  c #341503",
":  c #3A1301",
">  c #3D1C04",
",  c #3F2107",
"<  c #440300",
"1  c #4C0401",
"2  c #470B01",
"3  c #4C0B02",
"4  c #520400",
"5  c #5D0401",
"6  c #530C01",
"7  c #5D0A01",
"8  c #491703",
"9  c #5B1302",
"0  c #5A1703",
"q  c #551A03",
"w  c #630400",
"e  c #6B0401",
"r  c #640B01",
"t  c #6B0901",
"y  c #740501",
"u  c #7A0501",
"i  c #7B0B02",
"p  c #691803",
"a  c #721504",
"s  c #781703",
"d  c #7B1C04",
"f  c #472106",
"g  c #562607",
"h  c #5E3516",
"j  c #682707",
"k  c #772606",
"l  c #6C330A",
"z  c #79350A",
"x  c #623812",
"c  c #7E3911",
"v  c #684113",
"b  c #830300",
"n  c #870802",
"m  c #8B0B01",
"M  c #940400",
"N  c #9A0500",
"B  c #920C02",
"V  c #9C0B01",
"C  c #821203",
"Z  c #891A05",
"A  c #951404",
"S  c #981904",
"D  c #A20500",
"F  c #AB0200",
"G  c #A40D01",
"H  c #AC0B01",
"J  c #B80300",
"K  c #B30D02",
"L  c #BB0D02",
"P  c #A41403",
"I  c #AC1303",
"U  c #A31B04",
"Y  c #A91D06",
"T  c #B51303",
"R  c #BB1403",
"E  c #B41C04",
"W  c #BB1C04",
"Q  c #882707",
"!  c #972808",
"~  c #8A360C",
"^  c #973B0B",
"/  c #8A3B15",
"(  c #9A3912",
")  c #AA2A05",
"_  c #A9280A",
"`  c #B52405",
"'  c #B82707",
"]  c #BC2B09",
"[  c #A8370C",
"{  c #B2350D",
"}  c #BC340B",
"|  c #B93B0A",
" . c #AA3912",
".. c #B63D13",
"X. c #C70500",
"o. c #C40C01",
"O. c #CC0D01",
"+. c #DD0300",
"@. c #D40C01",
"#. c #DB0B01",
"$. c #C31402",
"%. c #CB1302",
"&. c #C31D04",
"*. c #CC1B04",
"=. c #D41302",
"-. c #DA1303",
";. c #D31B04",
":. c #DC1B03",
">. c #D61908",
",. c #E40600",
"<. c #EA0600",
"1. c #E40D01",
"2. c #ED0C01",
"3. c #FA0600",
"4. c #F40E01",
"5. c #FD0C01",
"6. c #E41401",
"7. c #EB1402",
"8. c #E31C03",
"9. c #ED1B04",
"0. c #F41302",
"q. c #FE1302",
"w. c #F31B03",
"e. c #FE1C03",
"r. c #CC2305",
"t. c #C42B05",
"y. c #C82807",
"u. c #D82706",
"i. c #DA2A06",
"p. c #D42C09",
"a. c #C83807",
"s. c #C53409",
"d. c #D3330B",
"f. c #D83809",
"g. c #C82F11",
"h. c #C73B12",
"j. c #D33C12",
"k. c #DA3912",
"l. c #E42404",
"z. c #EA2506",
"x. c #E72A07",
"c. c #F32405",
"v. c #FE2304",
"b. c #F42C06",
"n. c #FF2C05",
"m. c #F92B0A",
"M. c #EA3708",
"N. c #EB340B",
"B. c #E23C0B",
"V. c #FA3607",
"C. c #F4330A",
"Z. c #FE330B",
"A. c #FE3C0B",
"S. c #E63711",
"D. c #F53D11",
"F. c #8D4E0E",
"G. c #894614",
"H. c #974B17",
"J. c #9B5C1B",
"K. c #A9460E",
"L. c #B8470A",
"P. c #B6540C",
"I. c #A94816",
"U. c #B84615",
"Y. c #A95A1B",
"T. c #BA5817",
"R. c #AB6317",
"E. c #B9661C",
"W. c #8E5023",
"Q. c #A85D21",
"!. c #B65921",
"~. c #BB6723",
"^. c #B37329",
"/. c #C5450D",
"(. c #CA490D",
"). c #D4430C",
"_. c #D8480B",
"`. c #CA570C",
"'. c #D8520C",
"]. c #C64915",
"[. c #DB4412",
"{. c #D74914",
"}. c #C45415",
"|. c #C2551A",
" X c #C95A1A",
".X c #D75918",
"XX c #E6450B",
"oX c #FE430B",
"OX c #F9480D",
"+X c #E6570C",
"@X c #F75509",
"#X c #FE540A",
"$X c #E94B14",
"%X c #F94913",
"&X c #E95815",
"*X c #FE5413",
"=X c #FF5C13",
"-X c #F45618",
";X c #CC6518",
":X c #D46B15",
">X c #D86619",
",X c #DA751A",
"<X c #EC640D",
"1X c #F9670B",
"2X c #FC760B",
"3X c #E96916",
"4X c #E4641C",
"5X c #F36411",
"6X c #FE6313",
"7X c #FD6D14",
"8X c #FB671A",
"9X c #FC6C1C",
"0X c #EB731B",
"qX c #FE7515",
"wX c #F87816",
"eX c #FC741B",
"rX c #F47C1D",
"tX c #FD7B1B",
"yX c #C85B23",
"uX c #FD5C25",
"iX c #C76826",
"pX c #D76925",
"aX c #D17A2B",
"sX c #D67829",
"dX c #C67C36",
"fX c #E56824",
"gX c #EC6B22",
"hX c #FB6A25",
"jX c #E97827",
"kX c #FC7322",
"lX c #F67926",
"zX c #F07C33",
"xX c #C0811C",
"cX c #EF811B",
"vX c #FA861A",
"bX c #FE931D",
"nX c #D28830",
"mX c #D78C38",
"MX c #EC872A",
"NX c #F78626",
"BX c #FB8B24",
"VX c #FD832C",
"CX c #FB8C2D",
"ZX c #FB9629",
"AX c #E98A34",
"SX c #F28B33",
"DX c #FB8A35",
"FX c #E8933B",
"GX c #F99738",
"HX c #FBA82A",
"JX c #FBA63B",
"KX c #EB9944",
"LX c #F7A64A",
"PX c #F7B249",
/* pixels */
"v.%XfX!.l a $.3.e.-XGXHXGXwXvXSXSXnXiX;XI.! S J D 5 < * # # o .                                                                 ",
"q.t.j q 6 V ,.3.T ~ Q.aXmX,XGXFXmXJ.K.K.! U $.K C & & < * @ X .                                                                 ",
"5.V 6 t D #.3.<.T ! I.T.aX;XMXT.H.^ } ] E R ' ) Q q 3 3 & o .                                                                   ",
"<.N y G e.v.v.2.$.W j.).:X;X;X`.'.a.y.8.r.g.| I.~ j q 2 # X                                                                     ",
"+.D A S.*XhX*XN.8.8.x.N.a./.a.).k.z.9.z.f./.L.K.~ l q = # X .                                                                   ",
"3.&._ yXkXLXBX&Xl.e.9.l.y.r.u.z.0.#.%.g.'.}.K.~ z j > % $ X                                                                     ",
"e.D.].pXzXPXPXFXB.e.,.<.=.7.7.#.o.K W )..XT.( Q k 0 % o o . .                                                                   ",
"A.#X&X+X5XeXCXAX[.0.X.,.7.x.u.&.$.O.&.{.iXI.c a d 6 @ o o .                                                                     ",
"7XqXtX5XtXNXZXAXh.R u I { U.U.t.:.7.w.x.( q q a i 1 @ @ o X .                                                                   ",
"cX3X3XwXvXrX4X(._ 9 8 k I.Y.T.| z.0.2.A q 2 r i i w 1 * @ X                                                                     ",
":X;X1XvXcX3X'.d.U p Z  .{.`.L.| *.1.F 1 < t m N b t 6 = @ X .                                                                   ",
";X>XeXJXFXT.' T V _ g.{.=XvX+X_.u.L 5 2 r V K N m a q > % X                                                                     ",
"aXjXgXgXyX! I @.-.C.OX6XtXBXeX_.' m 5 t P $.K G a 0 g > - O                                                                     ",
"T.T. .{ ] Y o.4.v.#XeX2XbXZXSX.X' V B R =.%.K n 0 q q ; $ O .                                                                   ",
"Q ! E =.-.G o.q.Z.hXLXbXHX0X X[ E K @.1.-.L M u 7 0 q 8 % X                                                                     ",
"=.6.e.q.4.G =.q.l..XMXAXmXI.[ y.:.:.m.z.r.I N N i p 0 > - o .                                                                   ",
"m.A.%XZ.r.U %.o.A Q U.I./ Z $.w.m.D.%XN.i.t.&.H m 5 9 8 ; + .                                                                   ",
"%XhXhX].h.p.c.6.K K W _ A o.4.e.M.+XfX.X).d.s.) i e 5 3 ; + . .                                                                 ",
"GXGXfX}._.@XoXz.L @.2.4.1.4.q.v.j.$X-X[.| s./.H.k a t 4 @ X .                                                                   ",
"gXfX&X@X#XqX8Xf.I @.5.5.0.e.v.Z.D.%XuX&Xa.s.a.K.z j 7 * . .                                                                     ",
"lXwX8X9XeXtXlXU.Y $.5.0.*.z.Z.A.-XuXhXpX}.f._.L.F.d r * X . .                                                                   ",
":X5X0XfXpX3X3XL.E >.0.@.R l.A.oX$X-XzXzXpX[.;X~.F.k p 4 & @ X .                                                                 ",
"<X7XeXjXpX.X{.j.l.w.0.#.=.c.oX=XhXhXzXjX!..X>X!./ Q p r < # o .                                                                 ",
"1XqXlXZX0X/.p.l.i.r.%.X.4.e.%XlXSXSXMXaX!.U.|.Y.H.^ k 5 & # o .                                                                 ",
"lXlXSXLXiXh.m.m.m.g.o.X.3.e.A.iX^.dXAXzXT.]./.L.[ ^ 9 # @ @ X . .                                                               ",
"]./.{.|.I.g.D.Z.%X>.o.,.5.q.W h h W.pXKXdXT./.L.[ Z 1 & * & @ .                                                                 ",
"Z S ' r.] S.uX*X%X&.H @.1.0.R s Z } &XrXE.I.K.) A i 5 5 5 * @ .                                                                 ",
"m P 8.9.u.g...U._ A n K 7.n.Z.p.y.l.XX{.( _ E P A S S d 9 & . . .                                                               ",
"u.c.Z.N.h.j.[ U C A A ` N.*X8X-X] x.n.:.P K o.K ` ) F.G.x $ . . .                                                               ",
"oXA.*X$X{.k.` H $.c.A.{.$XkXGXFXI.f.n.8.H F J R p.P.^.v x ; X X .                                                               ",
"bX$XA.[.[.b.:.I x.%X=XjX XfX.XsXE.=X6X_.A M X.l.(.E.J.F.v , + . .                                                               ",
"HX=.m A 9.q.:.! $XhXDXKX!.&X*XtXgXvXMXT.p B O.f.:XxXJ.F.v f + o .                                                               ",
"7. .r B 5.w.U c ].eXeX,X}.5X8XvXcXvXBX`.) @.7.i.E.R.J.F.x ; @ @ . .                                                             ",
"=..X( ' >.E k / |.VXCXMX3XVXkXCXeXZXBX3Xh.9.o.Q [ K.Y.F.g % & @ X                                                               ",
"v.hXhXXXx.W ! I.iXzXCXBX2XZXNXCX7XbXZXjX{.u.n a [ |.^.c : * * @ X                                                               ",
"Z.VXGXzX{.g.d.{.gXgXCXZXZXJXjXjXrXZXMX>X/.W m V ' L.G.8 2 4 < # X                                                               ",
"p.fXAXDXfXj.k.$XhXlXeXBXcXnX;X>X3XjXaXP.[ P D o.*.W S 5 4 4 < @ X                                                               ",
"t.&XzXLXLXyXj.S.+X5X2XvXcX:XP.0XVXVX3X`.g.=.+.,.#.O.K y 5 < * @ o .                                                             ",
"y.oXlXLXKX Xh.x.OX=XqXbXvX0X5XeXCXlXwXjXk.9.3.<.@.%.E d 9 & & & o .                                                             ",
"8.oXLXPXLXiXj.c.C.OX7XZXZXcX3XZXSXrX9XjX{.%.,.6.u.s.L.~ p 1 1 & o .                                                             ",
"7.oXVXJXmX>X[.m.m.S.-XzXKXsXiX.X.X<XlXpX..R 7.N.XX`.P.^ k r 6 = o . .                                                           ",
"6.v.$XfXsXpX].g.S.} j.$XyX|.U.[.&X&X>X( ! u.S.&XpX;XP.~ s r 6 ; + .                                                             ",
"r.v.i.j.].{.U.} k._ ' y.h.....f.).| { t.b.OXhXzXAXiX( a 5 4 9 > + . .                                                           ",
"f.V.r.;.r.g.....j._ $.6.6.E ' u.y.S *.n.%XlXjXiXW.g 3 < 1 4 0 > + .                                                             ",
"<X_.' T o.&.E ` t.E 2.5.#.O.1.q.O.G 7.Z.-XpXI.Q a r e e w r 0 8 + O .                                                           ",
"`./.) R X.o.P R ;.8.e.9.$.O.5.3.O.K 6.p.| ( ! U K D b b b r 8 ; + .                                                             ",
"P.a.y.:.4.1.=.9.c.v.A.N.g.p.9.2.N n P W &.;.=.6.8.;.V N N w & @ X .                                                             ",
"'.XXf.9.0.e.Z.Z.D.oX*X-X&Xf.m.@.V G o.=.6.0.w.C.$X].! m M 5 & # # o .                                                           ",
"3X_.i.6.w.Z.#X=X0X{.<X&X5XXXz.%.H $.i.v.v.e.b.@X:X~.l p u y 1 * * o . .                                                         ",
"$XV.;.O.*.A.tXvXrX>X@X1X<Xk.&.L -.m.oXk.y.y.d.`.>XY.l i n n w 6 = $ .                                                           ",
"k._ C m U N.kXlXNXjX<X'.B.p.A A >.Z.4X/.' E t.(.U.( d V G B a f f - X                                                           ",
"{ ~ j S *.z.%X&X4X>X'.f.r.P U W c.Z.S.{ ] ;.l.i.d.t.T L P S l g > $ X .                                                         ",
"fXyXK.t.z.e.Z.N.j.j.y.P B Y i.f.C.C.p.p.x.9.w.9.u.:.L o.U Q z g f : o . .                                                       ",
"0X X X).b.q.5.o.V H B u m &.V.$XB.z.0.9.w.9.9.w.>.K n V a g l g 8 ; $ .                                                         ",
"CX3XlX'.b.q.X.t u L R G T 8.b.B.m.v.q.q.9.:.c.N.` C i m a p k j g 8 % O .                                                       ",
",X>X3X).c.#.D i Y i.f.r.8.q.v.n.m.u.' ' ` ] u.] _ U >.r.s s ~ z j f ; + .                                                       ",
" X+X_.r.1.-.E  .{.-X@Xs.%.-.e.M.U.~  ._.{.a.' _ >.S.$XY.k k ! z j g > - .                                                       ",
"s.) ` @.q.m.[.yX X.X+Xa.' E ] /.U.I.(.5XlX.X{ r.b.&XsXJ.g a U d j 8 : $ . . .                                                   ",
"$.L #.q.n.*XsXiX|.'.B.i.) [ } XX@X+X1XtXVX X[ x.D.fXdXW.~ A K y < < * # o .                                                     ",
"F J 4.n.6XCXdXJ.|.k.C.V.).).XX#X6XqXqXvXBXgXj.N.$XpX^.Y.[ ` L u 1 1 4 < # X .                                                   ",
"J ,.v.#XZXPX^.I.a.f.A.-X.X'.@X1XvXcX,X3XCXDXfX_.XX.X;XiX|.g.I B C C p 6 % o .                                                   ",
"<.5.oXqXGXmXQ.P.s.b.oX5X3X'.1X2XvX3X;XXXeXkX.X| f.'.5X,XK.} ` W ) S k q 2 # X . .                                               ",
"5.n.=X2XcXR.K.' u.V.6XvXMX0X2X1XqXqXqX5XtX0X X} u.[.$X|.Q ) j.`.P.! Z p 3 * @ . .                                               ",
"q.A.VXJXsX^ E 6.e.A.2XvXcX3X2XvXZXSXCXjX>X| ' -.q.c.i.[ Q S ' aXxXA 4 1 r 4 & . . .                                             "
};
