/* XPM */
static char *ec7ef7c354b4482388fc20e01f3b2ef71phH2OcogktYNRS6[] = {
/* columns rows colors chars-per-pixel */
"64 64 247 2 ",
"   c #1F2530",
".  c #21242E",
"X  c #23262F",
"o  c #24252E",
"O  c #24262F",
"+  c #312326",
"@  c #312327",
"#  c #322326",
"$  c #322327",
"%  c #342325",
"&  c #352325",
"*  c #362325",
"=  c #31272C",
"-  c #33292B",
";  c #34282A",
":  c #37282B",
">  c #372A2F",
",  c #3C2829",
"<  c #3F292B",
"1  c #3F2A2B",
"2  c #39282C",
"3  c #3F2A2C",
"4  c #202531",
"5  c #222530",
"6  c #222631",
"7  c #2A2F3A",
"8  c #3F2F30",
"9  c #3D2E33",
"0  c #3C2E34",
"q  c #3C2E36",
"w  c #2F3139",
"e  c #31343C",
"r  c #35383F",
"t  c #45291E",
"y  c #44291F",
"u  c #45291F",
"i  c #472B1F",
"p  c #482A1F",
"a  c #4C321F",
"s  c #563617",
"d  c #563717",
"f  c #573717",
"g  c #553518",
"h  c #563618",
"j  c #563718",
"k  c #573718",
"l  c #563719",
"z  c #55371B",
"x  c #50351D",
"c  c #55371D",
"v  c #563818",
"b  c #573918",
"n  c #573919",
"m  c #57381B",
"M  c #57391B",
"N  c #57391D",
"B  c #583819",
"V  c #583919",
"C  c #5A3B19",
"Z  c #58391A",
"A  c #58391B",
"S  c #583A1B",
"D  c #5B3D18",
"F  c #5A3C19",
"G  c #5B3C1A",
"H  c #5B3D1B",
"J  c #5E3F19",
"K  c #5C3D1A",
"L  c #5C3E1A",
"P  c #5C3E1B",
"I  c #5E3E1A",
"U  c #5F3F1A",
"Y  c #583A1F",
"T  c #5A3B1E",
"R  c #5E3F1C",
"E  c #603F1B",
"W  c #472A20",
"Q  c #462B20",
"!  c #462A21",
"~  c #472A21",
"^  c #402927",
"/  c #452D24",
"(  c #482A20",
")  c #492B20",
"_  c #482B21",
"`  c #492B21",
"'  c #482C21",
"]  c #492C21",
"[  c #492D21",
"{  c #4A2C20",
"}  c #4B2D20",
"|  c #4A2C21",
" . c #4A2D21",
".. c #4A2E20",
"X. c #4B2E20",
"o. c #4B2E21",
"O. c #4B2D22",
"+. c #4A2F22",
"@. c #4B2F22",
"#. c #4C2F21",
"$. c #4C2F22",
"%. c #402A2B",
"&. c #402B2C",
"*. c #412B2C",
"=. c #422C2D",
"-. c #402D2F",
";. c #412D2F",
":. c #4A3021",
">. c #4C3021",
",. c #4D3121",
"<. c #4F3221",
"1. c #4C3022",
"2. c #4F3222",
"3. c #4F3422",
"4. c #493225",
"5. c #4B3225",
"6. c #4C3124",
"7. c #4F3327",
"8. c #49302C",
"9. c #503321",
"0. c #533521",
"q. c #503721",
"w. c #503522",
"e. c #523422",
"r. c #523722",
"t. c #513624",
"y. c #513725",
"u. c #523725",
"i. c #523921",
"p. c #523924",
"a. c #5A3D23",
"s. c #503429",
"d. c #513A2B",
"f. c #423031",
"g. c #443031",
"h. c #453232",
"j. c #453332",
"k. c #443333",
"l. c #453333",
"z. c #463232",
"x. c #463332",
"c. c #463432",
"v. c #403535",
"b. c #423436",
"n. c #453435",
"m. c #493837",
"M. c #493739",
"N. c #483B3B",
"B. c #4B3A3A",
"V. c #4C3A3B",
"C. c #4C3B3B",
"Z. c #4A3C3B",
"A. c #4B3D3C",
"S. c #4C3C3C",
"D. c #4C3E3E",
"F. c #4E3F3F",
"G. c #5D401A",
"H. c #5E411A",
"J. c #5F411B",
"K. c #5F411D",
"L. c #61411B",
"P. c #60421A",
"I. c #60421B",
"U. c #63431C",
"Y. c #62441C",
"T. c #64441C",
"R. c #65441C",
"E. c #64451C",
"W. c #64441D",
"Q. c #64461C",
"!. c #65461C",
"~. c #65471C",
"^. c #65451E",
"/. c #5A4020",
"(. c #5E4024",
"). c #5F4325",
"_. c #4C403D",
"`. c #5D4530",
"'. c #59473D",
"]. c #614321",
"[. c #604423",
"{. c #634623",
"}. c #604526",
"|. c #674920",
" X c #644923",
".X c #654923",
"XX c #664922",
"oX c #6A4E34",
"OX c #654E3D",
"+X c #664F3D",
"@X c #6C543F",
"#X c #3C3C41",
"$X c #4E4141",
"%X c #4E4441",
"&X c #4F4642",
"*X c #514242",
"=X c #5F5353",
"-X c #675141",
";X c #695445",
":X c #6B5749",
">X c #705B4E",
",X c #705E54",
"<X c #746256",
"1X c #796351",
"2X c #766559",
"3X c #78675D",
"4X c #78685E",
"5X c #706667",
"6X c #7A6B61",
"7X c #7D6E65",
"8X c #77706B",
"9X c #7F7676",
"0X c #807269",
"qX c #84766E",
"wX c #B9B4B0",
"eX c #BFBBBA",
"rX c #C1BFBF",
"tX c #C3BFBE",
"yX c #C2C0BF",
"uX c #C3C0BF",
"iX c #C4C0BF",
"pX c #C4C1BF",
"aX c #C5C1BF",
"sX c #C6C1BE",
"dX c #C6C1BF",
"fX c #C5C2BF",
"gX c #C6C2BE",
"hX c #C7C2BE",
"jX c #C6C2BF",
"kX c #C7C2BF",
"lX c #C7C3BF",
"zX c #C8C2BE",
"xX c #C8C2BF",
"cX c #C8C3BF",
"vX c #C9C3BF",
"bX c #C9C4BF",
"nX c #BFBFC0",
"mX c #C0BFC0",
"MX c #C1BFC0",
"NX c #BFC0C0",
"BX c #C4C0C0",
"VX c #C4C1C0",
"CX c #C5C1C0",
"ZX c #C7C3C1",
"AX c #C9C5C3",
"SX c #ECEAEA",
"DX c white",
/* pixels */
"SX,XAXDXDXDXDXDXDXDXDXDXDXDXDXDXDXDXDXDXDXDXDXDXDXDXDXDXDXDXDXDXDXDXDXDXDXDXDXDXDXDXDXDXDXDXDXDXDXDXDXDXDXDXDXDXDXDXDXDXDXgXk k ",
"eX+XgXDXDXDXDXDXDXDXDXDXDXDXDXDXDXDXDXDXDXDXDXDXDXDXDXDXDXDXDXDXDXDXDXDXDXDXDXDXDXDXDXDXDXDXDXDXDXDXDXDXDXDXDXDXDXDXDXDXDXgXb V ",
"wX@XgXDXDXDXDXDXDXDXDXDXDXDXDXDXDXDXDXDXDXDXDXDXDXDXDXDXDXDXDXDXDXDXDXDXDXDXDXDXDXDXDXDXDXDXDXDXDXDXDXDXDXDXDXDXDXDXDXDXDXgXb b ",
"8X`.gXDXDXDXDXDXDXDXDXDXDXDXDXDXDXDXDXDXDXDXDXDXDXDXDXDXDXDXDXDXDXDXDXDXDXDXDXDXDXDXDXDXDXDXDXDXDXDXDXDXDXDXDXDXDXDXDXDXDXgXV b ",
"&Xy.gXDXDXDXDXDXDXDXDXDXDXDXDXDXDXDXDXDXDXDXDXDXDXDXDXDXDXDXDXDXDXDXDXDXDXDXDXDXDXDXDXDXDXDXDXDXDXDXDXDXDXDXDXDXDXDXDXDXDXgXG b ",
"&Xy.gXDXDXDXDXDXDXDXDXDXDXDXDXDXDXDXDXDXDXDXDXDXDXDXDXDXDXDXDXDXDXDXDXDXDXDXDXDXDXDXDXDXDXDXDXDXDXDXDXDXDXDXDXDXDXDXDXDXDXgXH.G ",
"_.y.gXDXDXDXDXDXDXDXDXDXDXDXDXDXDXDXDXDXDXDXDXDXDXDXDXDXDXDXDXDXDXDXDXDXDXDXDXDXDXDXDXDXDXDXDXDXDXDXDXDXDXDXDXDXDXDXDXDXDXzXL.G ",
"Z.5.gXDXDXDXDXDXDXDXDXDXDXDXDXDXDXDXDXDXDXDXDXDXDXDXDXDXDXDXDXDXDXDXDXDXDXDXDXDXDXDXDXDXDXDXDXDXDXDXDXDXDXDXDXDXDXDXDXDXDXgX/.x ",
"N.- mXDXDXDXDXDXDXDXDXDXDXDXDXDXDXDXDXDXDXDXDXDXDXDXDXDXDXDXDXDXDXDXDXDXDXDXDXDXDXDXDXDXDXDXDXDXDXDXDXDXDXDXDXDXDXDXDXDXDXNXo o ",
"$X; mXDXDXDXDXDXDXDXDXDXDXDXDXDXDXDXDXDXDXDXDXDXDXDXDXDXDXDXDXDXDXDXDXDXDXDXDXDXDXDXDXDXDXDXDXDXDXDXDXDXDXDXDXDXDXDXDXDXDXnX5 7 ",
"$X= mXDXDXDXDXDXDXDXDXDXDXDXDXDXDXDXDXDXDXDXDXDXDXDXDXDXDXDXDXDXDXDXDXDXDXDXDXDXDXDXDXDXDXDXDXDXDXDXDXDXDXDXDXDXDXDXDXDXDXnXX 5 ",
"F./ yXDXDXDXDXDXDXDXDXDXDXDXDXDXDXDXDXDXDXDXDXDXDXDXDXDXDXDXDXDXDXDXDXDXDXDXDXDXDXDXDXDXDXDXDXDXDXDXDXDXDXDXDXDXDXDXDXDXDXgXi.a ",
"F.o.gXDXDXDXDXDXDXDXDXDXDXDXDXDXDXDXDXDXDXDXDXDXDXDXDXDXDXDXDXDXDXDXDXDXDXDXDXDXDXDXDXDXDXDXDXDXDXDXDXDXDXDXDXDXDXDXDXDXDXgXI s ",
"C.o.gXDXDXDXDXDXDXDXDXDXDXDXDXDXDXDXDXDXDXDXDXDXDXDXDXDXDXDXDXDXDXDXDXDXDXDXDXDXDXDXDXDXDXDXDXDXDXDXDXDXDXDXDXDXDXDXDXDXDXgXI s ",
"N.o.gXDXDXDXDXDXDXDXDXDXDXDXDXDXDXDXDXDXDXDXDXDXDXDXDXDXDXDXDXDXDXDXDXDXDXDXDXDXDXDXDXDXDXDXDXDXDXDXDXDXDXDXDXDXDXDXDXDXDXgXI s ",
"N.o.gXDXDXDXDXDXDXDXDXDXDXDXDXDXDXDXDXDXDXDXDXDXDXDXDXDXDXDXDXDXDXDXDXDXDXDXDXDXDXDXDXDXDXDXDXDXDXDXDXDXDXDXDXDXDXDXDXDXDXgXI s ",
"m.o.gXDXDXDXDXDXDXDXDXDXDXDXDXDXDXDXDXDXDXDXDXDXDXDXDXDXDXDXDXDXDXDXDXDXDXDXDXDXDXDXDXDXDXDXDXDXDXDXDXDXDXDXDXDXDXDXDXDXDXgXI s ",
"c.o.gXDXDXDXDXDXDXDXDXDXDXDXDXDXDXDXDXDXDXDXDXDXDXDXDXDXDXDXDXDXDXDXDXDXDXDXDXDXDXDXDXDXDXDXDXDXDXDXDXDXDXDXDXDXDXDXDXDXDXgXI Y ",
"h.o.gXDXDXDXDXDXDXDXDXDXDXDXDXDXDXDXDXDXDXDXDXDXDXDXDXDXDXDXDXDXDXDXDXDXDXDXDXDXDXDXDXDXDXDXDXDXDXDXDXDXDXDXDXDXDXDXDXDXDXgX].oX",
"8 o.gXDXDXDXDXDXDXDXDXDXDXDXDXDXDXDXDXDXDXDXDXDXDXDXDXDXDXDXDXDXDXDXDXDXDXDXDXDXDXDXDXDXDXDXDXDXDXDXDXDXDXDXDXDXDXDXDXDXDXgXK.).",
"f.o.gXDXDXDXDXDXDXDXDXDXDXDXDXDXDXDXDXDXDXDXDXDXDXDXDXDXDXDXDXDXDXDXDXDXDXDXDXDXDXDXDXDXDXDXDXDXDXDXDXDXDXDXDXDXDXDXDXDXDXzXH.V ",
"h.o.gXDXDXDXDXDXDXDXDXDXDXDXDXDXDXDXDXDXDXDXDXDXDXDXDXDXDXDXDXDXDXDXDXDXDXDXDXDXDXDXDXDXDXDXDXDXDXDXDXDXDXDXDXDXDXDXDXDXDXbXL.s ",
"h.<.gXDXDXDXDXDXDXDXDXDXDXDXDXDXDXDXDXDXDXDXDXDXDXDXDXDXDXDXDXDXDXDXDXDXDXDXDXDXDXDXDXDXDXDXDXDXDXDXDXDXDXDXDXDXDXDXDXDXDXzXY.s ",
"h.0.gXDXDXDXDXDXDXDXDXDXDXDXDXDXDXDXDXDXDXDXDXDXDXDXDXDXDXDXDXDXDXDXDXDXDXDXDXDXDXDXDXDXDXDXDXDXDXDXDXDXDXDXDXDXDXDXDXDXDXbXW.s ",
"h.0.gXDXDXDXDXDXDXDXDXDXDXDXDXDXDXDXDXDXDXDXDXDXDXDXDXDXDXDXDXDXDXDXDXDXDXDXDXDXDXDXDXDXDXDXDXDXDXDXDXDXDXDXDXDXDXDXDXDXDXbXW.s ",
"h.<.gXDXDXDXDXDXDXDXDXDXDXDXDXDXDXDXDXDXDXDXDXDXDXDXDXDXDXDXDXDXDXDXDXDXDXDXDXDXDXDXDXDXDXDXDXDXDXDXDXDXDXDXDXDXDXDXDXDXDXbXW.s ",
"h.3.gXDXDXDXDXDXDXDXDXDXDXDXDXDXDXDXDXDXDXDXDXDXDXDXDXDXDXDXDXDXDXDXDXDXDXDXDXDXDXDXDXDXDXDXDXDXDXDXDXDXDXDXDXDXDXDXDXDXDXbXW.s ",
"n.0.gXDXDXDXDXDXDXDXDXDXDXDXDXDXDXDXDXDXDXDXDXDXDXDXDXDXDXDXDXDXDXDXDXDXDXDXDXDXDXDXDXDXDXDXDXDXDXDXDXDXDXDXDXDXDXDXDXDXDXzXW.s ",
"A.p.gXDXDXDXDXDXDXDXDXDXDXDXDXDXDXDXDXDXDXDXDXDXDXDXDXDXDXDXDXDXDXDXDXDXDXDXDXDXDXDXDXDXDXDXDXDXDXDXDXDXDXDXDXDXDXDXDXDXDXzXU.s ",
"v.0.gXDXDXDXDXDXDXDXDXDXDXDXDXDXDXDXDXDXDXDXDXDXDXDXDXDXDXDXDXDXDXDXDXDXDXDXDXDXDXDXDXDXDXDXDXDXDXDXDXDXDXDXDXDXDXDXDXDXDXzXL.s ",
"F.<.gXDXDXDXDXDXDXDXDXDXDXDXDXDXDXDXDXDXDXDXDXDXDXDXDXDXDXDXDXDXDXDXDXDXDXDXDXDXDXDXDXDXDXDXDXDXDXDXDXDXDXDXDXDXDXDXDXDXDXzXE s ",
"M.o.gXDXDXDXDXDXDXDXDXDXDXDXDXDXDXDXDXDXDXDXDXDXDXDXDXDXDXDXDXDXDXDXDXDXDXDXDXDXDXDXDXDXDXDXDXDXDXDXDXDXDXDXDXDXDXDXDXDXDXgXI s ",
";.o.gXDXDXDXDXDXDXDXDXDXDXDXDXDXDXDXDXDXDXDXDXDXDXDXDXDXDXDXDXDXDXDXDXDXDXDXDXDXDXDXDXDXDXDXDXDXDXDXDXDXDXDXDXDXDXDXDXDXDXgXI s ",
";.` gXDXDXDXDXDXDXDXDXDXDXDXDXDXDXDXDXDXDXDXDXDXDXDXDXDXDXDXDXDXDXDXDXDXDXDXDXDXDXDXDXDXDXDXDXDXDXDXDXDXDXDXDXDXDXDXDXDXDXgXI s ",
"h.` gXDXDXDXDXDXDXDXDXDXDXDXDXDXDXDXDXDXDXDXDXDXDXDXDXDXDXDXDXDXDXDXDXDXDXDXDXDXDXDXDXDXDXDXDXDXDXDXDXDXDXDXDXDXDXDXDXDXDXgXV s ",
"C.o.gXDXDXDXDXDXDXDXDXDXDXDXDXDXDXDXDXDXDXDXDXDXDXDXDXDXDXDXDXDXDXDXDXDXDXDXDXDXDXDXDXDXDXDXDXDXDXDXDXDXDXDXDXDXDXDXDXDXDXyXp k ",
"*Xo.gXDXDXDXDXDXDXDXDXDXDXDXDXDXDXDXDXDXDXDXDXDXDXDXDXDXDXDXDXDXDXDXDXDXDXDXDXDXDXDXDXDXDXDXDXDXDXDXDXDXDXDXDXDXDXDXDXDXDXyX` k ",
"9Xs.tXDXDXDXDXDXDXDXDXDXDXDXDXDXDXDXDXDXDXDXDXDXDXDXDXDXDXDXDXDXDXDXDXDXDXDXDXDXDXDXDXDXDXDXDXDXDXDXDXDXDXDXDXDXDXDXDXDXDXgXV k ",
"5X6.tXDXDXDXDXDXDXDXDXDXDXDXDXDXDXDXDXDXDXDXDXDXDXDXDXDXDXDXDXDXDXDXDXDXDXDXDXDXDXDXDXDXDXDXDXDXDXDXDXDXDXDXDXDXDXDXDXDXDXgXV k ",
"=X6.tXDXDXDXDXDXDXDXDXDXDXDXDXDXDXDXDXDXDXDXDXDXDXDXDXDXDXDXDXDXDXDXDXDXDXDXDXDXDXDXDXDXDXDXDXDXDXDXDXDXDXDXDXDXDXDXDXDXDXgXb b ",
"v.o.gXDXDXDXDXDXDXDXDXDXDXDXDXDXDXDXDXDXDXDXDXDXDXDXDXDXDXDXDXDXDXDXDXDXDXDXDXDXDXDXDXDXDXDXDXDXDXDXDXDXDXDXDXDXDXDXDXDXDXgXk N ",
"; Q gXDXDXDXDXDXDXDXDXDXDXDXDXDXDXDXDXDXDXDXDXDXDXDXDXDXDXDXDXDXDXDXDXDXDXDXDXDXDXDXDXDXDXDXDXDXDXDXDXDXDXDXDXDXDXDXDXDXDXgXV Y ",
"^ i gXDXDXDXDXDXDXDXDXDXDXDXDXDXDXDXDXDXDXDXDXDXDXDXDXDXDXDXDXDXDXDXDXDXDXDXDXDXDXDXDXDXDXDXDXDXDXDXDXDXDXDXDXDXDXDXDXDXDXgXG a.",
"i i yXDXDXDXDXDXDXDXDXDXDXDXDXDXDXDXDXDXDXDXDXDXDXDXDXDXDXDXDXDXDXDXDXDXDXDXDXDXDXDXDXDXDXDXDXDXDXDXDXDXDXDXDXDXDXDXDXDXDXgX0.d.",
"* * tXDXDXDXDXDXDXDXDXDXDXDXDXDXDXDXDXDXDXDXDXDXDXDXDXDXDXDXDXDXDXDXDXDXDXDXDXDXDXDXDXDXDXDXDXDXDXDXDXDXDXDXDXDXDXDXDXDXDXnX5 w ",
"* # mXDXDXDXDXDXDXDXDXDXDXDXDXDXDXDXDXDXDXDXDXDXDXDXDXDXDXDXDXDXDXDXDXDXDXDXDXDXDXDXDXDXDXDXDXDXDXDXDXDXDXDXDXDXDXDXDXDXDXnX  e ",
"# # mXDXDXDXDXDXDXDXDXDXDXDXDXDXDXDXDXDXDXDXDXDXDXDXDXDXDXDXDXDXDXDXDXDXDXDXDXDXDXDXDXDXDXDXDXDXDXDXDXDXDXDXDXDXDXDXDXDXDXnXX r ",
"* # mXDXDXDXDXDXDXDXDXDXDXDXDXDXDXDXDXDXDXDXDXDXDXDXDXDXDXDXDXDXDXDXDXDXDXDXDXDXDXDXDXDXDXDXDXDXDXDXDXDXDXDXDXDXDXDXDXDXDXgX5.#X",
"i i yXDXDXDXDXDXDXDXDXDXDXDXDXDXDXDXDXDXDXDXDXDXDXDXDXDXDXDXDXDXDXDXDXDXDXDXDXDXDXDXDXDXDXDXDXDXDXDXDXDXDXDXDXDXDXDXDXDXDXgXc '.",
"8.#.yXDXDXDXDXDXDXDXDXDXDXDXDXDXDXDXDXDXDXDXDXDXDXDXDXDXDXDXDXDXDXDXDXDXDXDXDXDXDXDXDXDXDXDXDXDXDXDXDXDXDXDXDXDXDXDXDXDXDXgXR +X",
";.o.gXDXDXDXDXDXDXDXDXDXDXDXDXDXDXDXDXDXDXDXDXDXDXDXDXDXDXDXDXDXDXDXDXDXDXDXDXDXDXDXDXDXDXDXDXDXDXDXDXDXDXDXDXDXDXDXDXDXDXzXW.-X",
", o.gXDXDXDXDXDXDXDXDXDXDXDXDXDXDXDXDXDXDXDXDXDXDXDXDXDXDXDXDXDXDXDXDXDXDXDXDXDXDXDXDXDXDXDXDXDXDXDXDXDXDXDXDXDXDXDXDXDXDXzXW.;X",
";.Q yXDXDXDXDXDXDXDXDXDXDXDXDXDXDXDXDXDXDXDXDXDXDXDXDXDXDXDXDXDXDXDXDXDXDXDXDXDXDXDXDXDXDXDXDXDXDXDXDXDXDXDXDXDXDXDXDXDXDXzXW.:X",
"*.Q yXDXDXDXDXDXDXDXDXDXDXDXDXDXDXDXDXDXDXDXDXDXDXDXDXDXDXDXDXDXDXDXDXDXDXDXDXDXDXDXDXDXDXDXDXDXDXDXDXDXDXDXDXDXDXDXDXDXDXzXW.>X",
"%.Q BXDXDXDXDXDXDXDXDXDXDXDXDXDXDXDXDXDXDXDXDXDXDXDXDXDXDXDXDXDXDXDXDXDXDXDXDXDXDXDXDXDXDXDXDXDXDXDXDXDXDXDXDXDXDXDXDXDXDXzX.X1X",
"*.` BXDXDXDXDXDXDXDXDXDXDXDXDXDXDXDXDXDXDXDXDXDXDXDXDXDXDXDXDXDXDXDXDXDXDXDXDXDXDXDXDXDXDXDXDXDXDXDXDXDXDXDXDXDXDXDXDXDXDXzX.X<X",
", o.BXDXDXDXDXDXDXDXDXDXDXDXDXDXDXDXDXDXDXDXDXDXDXDXDXDXDXDXDXDXDXDXDXDXDXDXDXDXDXDXDXDXDXDXDXDXDXDXDXDXDXDXDXDXDXDXDXDXDXzX.X2X",
", #.BXDXDXDXDXDXDXDXDXDXDXDXDXDXDXDXDXDXDXDXDXDXDXDXDXDXDXDXDXDXDXDXDXDXDXDXDXDXDXDXDXDXDXDXDXDXDXDXDXDXDXDXDXDXDXDXDXDXDXzX.X4X",
"3 <.BXDXDXDXDXDXDXDXDXDXDXDXDXDXDXDXDXDXDXDXDXDXDXDXDXDXDXDXDXDXDXDXDXDXDXDXDXDXDXDXDXDXDXDXDXDXDXDXDXDXDXDXDXDXDXDXDXDXDXzX.X6X",
"2 :.BXDXDXDXDXDXDXDXDXDXDXDXDXDXDXDXDXDXDXDXDXDXDXDXDXDXDXDXDXDXDXDXDXDXDXDXDXDXDXDXDXDXDXDXDXDXDXDXDXDXDXDXDXDXDXDXDXDXDXgX[.7X",
"> o.BXDXDXDXDXDXDXDXDXDXDXDXDXDXDXDXDXDXDXDXDXDXDXDXDXDXDXDXDXDXDXDXDXDXDXDXDXDXDXDXDXDXDXDXDXDXDXDXDXDXDXDXDXDXDXDXDXDXDXgX).0X",
"8 <.BXDXDXDXDXDXDXDXDXDXDXDXDXDXDXDXDXDXDXDXDXDXDXDXDXDXDXDXDXDXDXDXDXDXDXDXDXDXDXDXDXDXDXDXDXDXDXDXDXDXDXDXDXDXDXDXDXDXDXgX}.qX",
"0 3.BXDXDXDXDXDXDXDXDXDXDXDXDXDXDXDXDXDXDXDXDXDXDXDXDXDXDXDXDXDXDXDXDXDXDXDXDXDXDXDXDXDXDXDXDXDXDXDXDXDXDXDXDXDXDXDXDXDXDXgX[.3X",
"0 9.gXDXDXDXDXDXDXDXDXDXDXDXDXDXDXDXDXDXDXDXDXDXDXDXDXDXDXDXDXDXDXDXDXDXDXDXDXDXDXDXDXDXDXDXDXDXDXDXDXDXDXDXDXDXDXDXDXDXDXgXH.k "
};
