/* XPM */
static char *_be912697f524925d68dab53c3762b237DRHh07sbFQNdD4x[] = {
/* columns rows colors chars-per-pixel */
"64 64 166 2 ",
"   c #1F232C",
".  c #2D2325",
"X  c #2F2827",
"o  c #23242B",
"O  c #292629",
"+  c #2D282A",
"@  c #342524",
"#  c #3A2621",
"$  c #342B26",
"%  c #3C2C23",
"&  c #322B29",
"*  c #3A2F28",
"=  c #3E3025",
"-  c #3E3028",
";  c #232730",
":  c #45261D",
">  c #46291D",
",  c #4B2C1C",
"<  c #46311F",
"1  c #4D331D",
"2  c #573617",
"3  c #583717",
"4  c #5C3C17",
"5  c #54351B",
"6  c #58371A",
"7  c #55391C",
"8  c #5C3B1A",
"9  c #603F17",
"0  c #603F1A",
"q  c #432D21",
"w  c #443222",
"e  c #4B3322",
"r  c #4D3923",
"t  c #433328",
"y  c #4E332B",
"u  c #483828",
"i  c #543721",
"p  c #543A23",
"a  c #5B3D21",
"s  c #513729",
"d  c #553B2C",
"f  c #593D2D",
"g  c #4C3E33",
"h  c #4F3B38",
"j  c #533D31",
"k  c #523C38",
"l  c #5E401D",
"z  c #614117",
"x  c #63421B",
"c  c #69471C",
"v  c #6B4A1D",
"b  c #714F1E",
"n  c #5F4125",
"m  c #5B442F",
"M  c #5C422C",
"N  c #574030",
"B  c #564131",
"V  c #584131",
"C  c #5B4430",
"Z  c #5B4433",
"A  c #5C4430",
"S  c #5D4633",
"D  c #584137",
"F  c #5C4331",
"G  c #5E4939",
"H  c #654723",
"J  c #644421",
"K  c #684620",
"L  c #6B4A21",
"P  c #61462E",
"I  c #66492F",
"U  c #604734",
"Y  c #654A31",
"T  c #694D30",
"R  c #634A38",
"E  c #4E4544",
"W  c #544643",
"Q  c #594540",
"!  c #5D4A43",
"~  c #554E4E",
"^  c #5E504A",
"/  c #5D524E",
"(  c #565152",
")  c #614E46",
"_  c #624F49",
"`  c #635047",
"'  c #6B5443",
"]  c #64524A",
"[  c #66554C",
"{  c #63524B",
"}  c #665651",
"|  c #685750",
" . c #6F5F56",
".. c #6D5D56",
"X. c #725F53",
"o. c #756153",
"O. c #72625B",
"+. c #78675D",
"@. c #7B695D",
"#. c #7D6F67",
"$. c #7C6D65",
"%. c #7B6F68",
"&. c #82746C",
"*. c #867A73",
"=. c #8D7F76",
"-. c #857E7E",
";. c #86807F",
":. c #8C827D",
">. c #848180",
",. c #898382",
"<. c #8F8987",
"1. c #8F8988",
"2. c #908785",
"3. c #948A85",
"4. c #948B85",
"5. c #938F8E",
"6. c #918C8B",
"7. c #988E8A",
"8. c #95908E",
"9. c #95908F",
"0. c #9A918D",
"q. c #969291",
"w. c #969291",
"e. c #999595",
"r. c #999696",
"t. c #9A9493",
"y. c #9D9898",
"u. c #A39B97",
"i. c #ABA29E",
"p. c #A8A4A1",
"a. c #ACA6A3",
"s. c #B0AAA6",
"d. c #B3AFAF",
"f. c #B0ADAC",
"g. c #B3B0AF",
"h. c #B4B1AF",
"j. c #B5B1AF",
"k. c #B9B2AE",
"l. c #B6B3B1",
"z. c #BAB7B4",
"x. c #BBB7B7",
"c. c #B9B5B2",
"v. c #BBB8B7",
"b. c #BCB8B5",
"n. c #BCB8B7",
"m. c #BEB9B6",
"M. c #C1BDBA",
"N. c #C5C0BE",
"B. c #C4C2C1",
"V. c #CAC6C4",
"C. c #CECBCA",
"Z. c #D1CECB",
"A. c #D1CECC",
"S. c #D6D3D2",
"D. c #DCDAD9",
"F. c #DDDBDB",
"G. c #E0DEDD",
"H. c #E5E4E3",
"J. c #E8E6E5",
"K. c #E9E8E7",
"L. c #EEEDEC",
"P. c #F1F1F1",
"I. c #F2F1F1",
"U. c #F8F8F7",
"Y. c white",
"T. c #FFFFFF",
/* pixels */
"D.3.D , , : : : : : , : : y x.T.T.T.T.T.T.T.T.T.T.T.T.T.T.T.T.T.T.T.T.T.T.T.T.T.T.T.T.T.T.T.T.T.T.P.d.j : > : : , : : , : : y k ",
"Z.*.s > , : : : : : : , : h x.T.T.T.T.T.T.T.T.T.T.T.T.T.T.T.T.T.T.T.T.T.T.T.T.T.T.T.T.T.T.T.T.T.T.P.d.j , , , , , , : , , q i y ",
"M.$.e , : : > > : , , , , k x.T.T.T.T.T.T.T.T.T.T.T.T.T.T.T.T.T.T.T.T.T.T.T.T.T.T.T.T.T.T.T.T.T.T.P.d.j 5 5 5 e , 5 , 5 i : , : ",
"i..., , , q > , , , 3 9 4 f x.T.T.T.T.T.T.T.T.T.T.T.T.T.T.T.T.T.T.T.T.T.T.T.T.T.T.T.T.T.T.T.T.T.T.P.d.j 5 6 6 5 6 6 5 6 5 : , , ",
"q.[ , , , , , , 5 5 4 4 4 F n.T.T.T.T.T.T.T.T.T.T.T.T.T.T.T.T.T.T.T.T.T.T.T.T.T.T.T.T.T.T.T.T.T.T.P.g.j 5 4 0 6 0 0 6 0 i , , , ",
"8.] , , , , 6 6 5 5 4 4 3 M n.T.T.T.T.T.T.T.T.T.T.T.T.T.T.T.T.T.T.T.T.T.T.T.T.T.T.T.T.T.T.T.T.T.T.P.h.V 3 4 0 8 0 0 6 0 0 , , , ",
"5.{ , 5 , 5 x 8 5 5 8 6 5 f n.T.T.T.T.T.T.T.T.T.T.T.T.T.T.T.T.T.T.T.T.T.T.T.T.T.T.T.T.T.T.T.T.T.T.P.g.C 3 8 0 6 c 0 6 0 0 , 5 5 ",
"8.^ > 1 5 6 c x 2 5 6 5 5 d z.T.T.T.T.T.T.T.T.T.T.T.T.T.T.T.T.T.T.T.T.T.T.T.T.T.T.T.T.T.T.T.T.T.T.P.h.m 5 5 8 8 v 0 6 0 0 , , 0 ",
"q.~ @ 1 5 7 x x 2 5 8 7 6 m n.T.T.T.T.T.T.T.T.T.T.T.T.T.T.T.T.T.T.T.T.T.T.T.T.T.T.T.T.T.T.T.T.T.T.P.l.F 5 i 6 5 v 0 5 x 8 : 1 5 ",
"e.~ . > < e 7 7 3 5 8 6 8 M z.T.T.T.T.T.T.T.T.T.T.T.T.T.T.T.T.T.T.T.T.T.T.T.T.T.T.T.T.T.T.T.T.T.T.P.h.Z a a 8 5 c 0 5 8 a q % X ",
"e.( . $ $ & X * q , 8 6 x n z.T.T.T.T.T.T.T.T.T.T.T.T.T.T.T.T.T.T.T.T.T.T.T.T.T.T.T.T.T.T.T.T.T.T.P.l.Z a a n a K a q q % @ & o ",
"e./ @ < r $   o O & w a x M z.T.T.T.T.T.T.T.T.T.T.T.T.T.T.T.T.T.T.T.T.T.T.T.T.T.T.T.T.T.T.T.T.T.T.P.d.Z x a n w y * + o + * X o ",
"t.[ > 5 l r $ O     O w 8 M c.T.T.T.T.T.T.T.T.T.T.T.T.T.T.T.T.T.T.T.T.T.T.T.T.T.T.T.T.T.T.T.T.T.T.P.h.F l n = & o o     * a i w ",
"t.] , 7 x n 7 w * & O w i s c.T.T.T.T.T.T.T.T.T.T.T.T.T.T.T.T.T.T.T.T.T.T.T.T.T.T.T.T.T.T.T.T.T.T.P.h.U l 1 O   o X $ % i J x 5 ",
"t.] , 5 x c x 6 5 e q w 7 d l.T.T.T.T.T.T.T.T.T.T.T.T.T.T.T.T.T.T.T.T.T.T.T.T.T.T.T.T.T.T.T.T.T.T.P.k.P 6 1 $ @ % 1 7 7 7 J c 7 ",
"8.] , 6 x 4 x 8 x 4 5 7 6 u l.T.T.T.T.T.T.T.T.T.T.T.T.T.T.T.T.T.T.T.T.T.T.T.T.T.T.T.T.T.T.T.T.T.T.P.k.P 4 7 1 1 5 4 x 6 5 x v 5 ",
"5.{ , 6 l 8 0 0 x 8 8 8 8 s c.T.T.T.T.T.T.T.T.T.T.T.T.T.T.T.T.T.T.T.T.T.T.T.T.T.T.T.T.T.T.T.T.T.T.I.k.I 8 8 4 5 3 4 0 5 5 x b 5 ",
"6.) , 6 x 8 4 8 x 4 9 4 8 a c.T.T.T.T.T.T.T.T.T.T.T.T.T.T.T.T.T.T.T.T.T.T.T.T.T.T.T.T.T.T.T.T.T.T.P.k.I 8 x 4 5 8 0 0 5 1 K b 5 ",
"<.) , 8 c 0 3 4 x 8 x 8 4 n z.T.T.T.T.T.T.T.T.T.T.T.T.T.T.T.T.T.T.T.T.T.T.T.T.T.T.T.T.T.T.T.T.T.T.I.k.I 8 0 4 5 3 4 0 5 , J b 6 ",
"<.) , 3 c c 3 8 0 6 0 0 0 8 z.T.T.T.T.T.T.T.T.T.T.T.T.T.T.T.T.T.T.T.T.T.T.T.T.T.T.T.T.T.T.T.T.T.T.I.k.I 4 x 8 5 4 9 4 4 8 x L 5 ",
"4.) , 5 x J 5 2 4 5 8 8 8 i c.T.T.T.T.T.T.T.T.T.T.T.T.T.T.T.T.T.T.T.T.T.T.T.T.T.T.T.T.T.T.T.T.T.T.I.k.I x z x 6 0 8 8 0 x J v 3 ",
"6.) , 5 J x 5 3 x 6 4 8 7 i l.T.T.T.T.T.T.T.T.T.T.T.T.T.T.T.T.T.T.T.T.T.T.T.T.T.T.T.T.T.T.T.T.T.T.I.k.T x x c 8 4 6 6 0 K K c 5 ",
"<.) , 5 x x 2 3 x 6 4 4 5 i c.T.T.T.T.T.T.T.T.T.T.T.T.T.T.T.T.T.T.T.T.T.T.T.T.T.T.T.T.T.T.T.T.T.T.I.k.T c x c 4 9 3 5 6 c L x 3 ",
"4.) , 5 J x 5 4 x 6 x 4 5 7 c.T.T.T.T.T.T.T.T.T.T.T.T.T.T.T.T.T.T.T.T.T.T.T.T.T.T.T.T.T.T.T.T.T.T.I.k.I c x c 4 0 6 1 7 L v c 8 ",
"1.) , 5 J J 3 4 x 6 4 8 3 n l.T.T.T.T.T.T.T.T.T.T.T.T.T.T.T.T.T.T.T.T.T.T.T.T.T.T.T.T.T.T.T.T.T.T.P.h.Y v x v 8 x 4 5 3 c L x 8 ",
"<.) , 5 x J 8 4 c 8 8 8 8 n c.T.T.T.T.T.T.T.T.T.T.T.T.T.T.T.T.T.T.T.T.T.T.T.T.T.T.T.T.T.T.T.T.T.T.P.d.U L x v 0 x z 3 4 J L x 6 ",
"4.) , 5 J K J 0 c 8 0 8 3 7 c.T.T.T.T.T.T.T.T.T.T.T.T.T.T.T.T.T.T.T.T.T.T.T.T.T.T.T.T.T.T.T.T.T.T.P.d.U x 0 x 4 x 0 4 8 c L x 8 ",
"6.` , 3 c J 0 0 x x 9 6 7 5 c.T.T.T.T.T.T.T.T.T.T.T.T.T.T.T.T.T.T.T.T.T.T.T.T.T.T.T.T.T.T.T.T.T.T.P.l.F 8 8 x 8 z 9 8 8 J H 8 5 ",
"4.) , 8 x J 0 8 0 x 0 8 5 1 c.T.T.T.T.T.T.T.T.T.T.T.T.T.T.T.T.T.T.T.T.T.T.T.T.T.T.T.T.T.T.T.T.T.T.P.g.N 5 6 c 6 8 9 8 6 J H 6 e ",
"q.{ 1 6 c x 0 0 0 x 0 7 w 1 c.T.T.T.T.T.T.T.T.T.T.T.T.T.T.T.T.T.T.T.T.T.T.T.T.T.T.T.T.T.T.T.T.T.T.P.l.j w 7 x 7 4 8 0 0 x J 6 e ",
"q.{ , 6 x J 0 4 x x 0 1 = < c.T.T.T.T.T.T.T.T.T.T.T.T.T.T.T.T.T.T.T.T.T.T.T.T.T.T.T.T.T.T.T.T.T.T.P.g.g # i x 6 6 9 0 6 0 J 6 e ",
"6._ , 5 x J 0 0 0 x 9 1 % < l.T.T.T.T.T.T.T.T.T.T.T.T.T.T.T.T.T.T.T.T.T.T.T.T.T.T.T.T.T.T.T.T.T.T.P.g.g % 1 9 6 2 3 0 6 0 n 5 , ",
"<.) , , x x x x 8 4 8 7 < < h.T.T.T.T.T.T.T.T.T.T.T.T.T.T.T.T.T.T.T.T.T.T.T.T.T.T.T.T.T.T.T.T.T.T.P.g.g * w z 3 2 5 a 6 8 J 5 , ",
"<.) , 5 x x x z 8 5 8 7 1 1 c.T.T.T.T.T.T.T.T.T.T.T.T.T.T.T.T.T.T.T.T.T.T.T.T.T.T.T.T.T.T.T.T.T.T.P.l.g = r x 8 3 5 6 6 8 n 6 , ",
"5._ , 5 x x x x 4 6 4 x l 7 c.T.T.T.T.T.T.T.T.T.T.T.T.T.T.T.T.T.T.T.T.T.T.T.T.T.T.T.T.T.T.T.T.T.T.P.d.B w 7 c 8 x 4 4 8 8 6 5 e ",
"e.[ : 5 x c x z 0 l z x l 3 c.T.T.T.T.T.T.T.T.T.T.T.T.T.T.T.T.T.T.T.T.T.T.T.T.T.T.T.T.T.T.T.T.T.T.P.g.C 8 9 x 6 x c 0 4 6 , 5 e ",
"a...> 5 x c z x 0 0 x x l 3 k.T.T.T.T.T.T.T.T.T.T.T.T.T.T.T.T.T.T.T.T.T.T.T.T.T.T.T.T.T.T.T.T.T.T.P.h.m 4 x x 3 0 v 0 6 5 , 5 i ",
"d.O., 5 x c 4 4 8 8 0 c x 1 c.T.T.T.T.T.T.T.T.T.T.T.T.T.T.T.T.T.T.T.T.T.T.T.T.T.T.T.T.T.T.T.T.T.T.P.g.F 4 z 6 6 a K K 0 , e 5 a ",
"a. ., 3 x x 4 4 8 6 0 x x 7 l.T.T.T.T.T.T.T.T.T.T.T.T.T.T.T.T.T.T.T.T.T.T.T.T.T.T.T.T.T.T.T.T.T.T.P.g.F 8 9 4 5 n b c 0 6 , 5 0 ",
"y.[ 5 6 x x 6 4 6 5 8 x x 1 l.T.T.T.T.T.T.T.T.T.T.T.T.T.T.T.T.T.T.T.T.T.T.T.T.T.T.T.T.T.T.T.T.T.T.P.h.m 6 4 4 5 c v 0 0 6 , 5 a ",
"1.^ , 3 x 8 7 5 1 % w p l 1 l.T.T.T.T.T.T.T.T.T.T.T.T.T.T.T.T.T.T.T.T.T.T.T.T.T.T.T.T.T.T.T.T.T.T.P.c.f 5 5 5 e 0 c l 4 4 5 6 8 ",
",.! , 5 6 i q $ X o O = a 7 l.T.T.T.T.T.T.T.T.T.T.T.T.T.T.T.T.T.T.T.T.T.T.T.T.T.T.T.T.T.T.T.T.T.T.P.k.F , 1 @ @ w e u 5 8 a i a ",
",.! q 5 1 $ o     o $ w 1 1 c.T.T.T.T.T.T.T.T.T.T.T.T.T.T.T.T.T.T.T.T.T.T.T.T.T.T.T.T.T.T.T.T.T.T.P.h.M , w O     o + & t r t w ",
",.W # # X o   O $ % r 7 a < g.T.T.T.T.T.T.T.T.T.T.T.T.T.T.T.T.T.T.T.T.T.T.T.T.T.T.T.T.T.T.T.T.T.T.P.k.F , 1 @ . O o ;   X * O O ",
">.E . O + o + w 7 7 l 7 7 1 l.T.T.T.T.T.T.T.T.T.T.T.T.T.T.T.T.T.T.T.T.T.T.T.T.T.T.T.T.T.T.T.T.T.T.P.k.P 5 , , q < = $ O O &   ; ",
">.D # < < w w l 8 7 l 3 6 1 g.T.T.T.T.T.T.T.T.T.T.T.T.T.T.T.T.T.T.T.T.T.T.T.T.T.T.T.T.T.T.T.T.T.T.P.k.P 5 5 5 q l l 7 < w u + ; ",
">.E > 7 l l l l 8 3 x a 6 1 g.T.T.T.T.T.T.T.T.T.T.T.T.T.T.T.T.T.T.T.T.T.T.T.T.T.T.T.T.T.T.T.T.T.T.P.d.M 5 7 8 , 3 z 8 2 5 e = + ",
";.E , l z 3 z l 6 6 x x 6 5 l.T.T.T.T.T.T.T.T.T.T.T.T.T.T.T.T.T.T.T.T.T.T.T.T.T.T.T.T.T.T.T.T.T.T.P.l.V 5 6 l 5 z l 3 7 5 > 1 u ",
";.! 1 l 9 4 9 0 3 6 c 0 6 5 l.T.T.T.T.T.T.T.T.T.T.T.T.T.T.T.T.T.T.T.T.T.T.T.T.T.T.T.T.T.T.T.T.T.T.P.d.N , 8 x 6 x 8 3 8 3 i 5 i ",
";.! , l x 9 x 9 6 4 c 8 6 5 l.T.T.T.T.T.T.T.T.T.T.T.T.T.T.T.T.T.T.T.T.T.T.T.T.T.T.T.T.T.T.T.T.T.T.P.l.N 5 8 x 8 x 0 3 8 8 5 6 8 ",
";.W , 3 c z z z 4 8 x 6 6 7 l.T.T.T.T.T.T.T.T.T.T.T.T.T.T.T.T.T.T.T.T.T.T.T.T.T.T.T.T.T.T.T.T.T.T.P.g.N 5 6 x 0 x 9 4 4 4 5 4 x ",
";.G , l x x z z 6 l 0 5 3 4 k.T.T.T.T.T.T.T.T.T.T.T.T.T.T.T.T.T.T.T.T.T.T.T.T.T.T.T.T.T.T.T.T.T.T.P.l.N 5 8 c 8 x x 8 4 8 7 6 a ",
";.! , 8 c x 4 3 6 0 0 5 4 l k.T.T.T.T.T.T.T.T.T.T.T.T.T.T.T.T.T.T.T.T.T.T.T.T.T.T.T.T.T.T.T.T.T.T.P.g.V 5 4 x 8 z l 8 4 8 7 7 8 ",
"-.! , 4 v c z 3 6 8 0 3 P o.N.T.T.T.T.T.T.T.T.T.T.T.T.T.T.T.T.T.T.T.T.T.T.T.T.T.T.T.T.T.T.T.T.T.T.P.l.G 2 x x 6 4 x 4 4 8 5 3 n ",
"-.! , 6 c c l 4 8 6 J R &.h.J.T.T.T.T.T.T.T.T.T.T.T.T.T.T.T.T.T.T.T.T.T.T.T.T.T.T.T.T.T.T.T.T.T.T.I.B.%.Z J x 3 6 0 4 4 8 5 7 8 ",
"-.! , 7 x c 4 3 6 a R 7.V.K.T.T.T.T.T.T.T.T.T.T.T.T.T.T.T.T.T.T.T.T.T.T.T.T.T.T.T.T.T.T.T.T.T.T.T.T.L.V.t.o.P a 5 4 x l 8 5 7 l ",
"-.! , 3 0 0 8 3 M +.a.D.U.T.T.T.T.T.T.T.T.T.T.T.T.T.T.T.T.T.T.T.T.T.T.T.T.T.T.T.T.T.T.T.T.T.T.T.T.T.T.I.H.M.7.[ p 8 x 0 0 5 6 a ",
"-.) , 3 0 n l U :.M.J.U.T.T.T.T.T.T.T.T.T.T.T.T.T.T.T.T.T.T.T.T.T.T.T.T.T.T.T.T.T.T.T.T.T.T.T.T.T.T.T.T.U.P.D.d.:.' 0 x 8 5 5 a ",
"-.G 5 6 U R @.u.A.L.T.T.T.T.T.T.T.T.T.T.T.T.T.T.T.T.T.T.T.T.T.T.T.T.T.T.T.T.T.T.T.T.T.T.T.T.T.T.T.T.T.T.T.T.U.L.S.s.=.' 8 5 5 i ",
"-.) f P ' :.M.G.U.T.T.T.T.T.T.T.T.T.T.T.T.T.T.T.T.T.T.T.T.T.T.T.T.T.T.T.T.T.T.T.T.T.T.T.T.T.T.T.T.T.T.T.T.T.T.T.U.K.A.i.$.f , e ",
"-.] F O.0.V.P.U.T.T.T.T.T.T.T.T.T.T.T.T.T.T.T.T.T.T.T.T.T.T.T.T.T.T.T.T.T.T.T.T.T.T.T.T.T.T.T.T.T.T.T.T.T.T.T.T.T.T.U.G.M.7.O.j ",
"-.| $.a.S.P.T.T.T.T.T.T.T.T.T.T.T.T.T.T.T.T.T.T.T.T.T.T.T.T.T.T.T.T.T.T.T.T.T.T.T.T.T.T.T.T.T.T.T.T.T.T.T.T.T.T.T.T.T.T.U.G.c.2.",
"5.:.M.H.U.T.T.T.T.T.T.T.T.T.T.T.T.T.T.T.T.T.T.T.T.T.T.T.T.T.T.T.T.T.T.T.T.T.T.T.T.T.T.T.T.T.T.T.T.T.T.T.T.T.T.T.T.T.T.T.T.T.I.G.",
"g.C.P.T.T.T.T.T.T.T.T.T.T.T.T.T.T.T.T.T.T.T.T.T.T.T.T.T.T.T.T.T.T.T.T.T.T.T.T.T.T.T.T.T.T.T.T.T.T.T.T.T.T.T.T.T.T.T.T.T.T.T.T.T."
};
