/* XPM */
static char *_5910cdbd2e74b48d0374966be8b7973ogBOjHfif9g6KlTb[] = {
/* columns rows colors chars-per-pixel */
"64 64 63 1 ",
"  c #372330",
". c #3E2731",
"X c #3F2831",
"o c #402731",
"O c #422831",
"+ c #4B2C33",
"@ c #522F34",
"# c #563134",
"$ c #5C3435",
"% c #5E3937",
"& c #623636",
"* c #653937",
"= c #6A3A37",
"- c #653C38",
"; c #6D3B38",
": c #723D39",
"> c #6B403A",
", c #76403A",
"< c #7B453C",
"1 c #77483D",
"2 c #7C4A3E",
"3 c #80473D",
"4 c #82493D",
"5 c #875040",
"6 c #8C5242",
"7 c #925543",
"8 c #925744",
"9 c #955644",
"0 c #945744",
"q c #985B46",
"w c #985C46",
"e c #9C5E47",
"r c #9E5F48",
"t c #A05F48",
"y c #A16149",
"u c #A46149",
"i c #A6644A",
"p c #AA664B",
"a c #AB674C",
"s c #AC674C",
"d c #AC684C",
"f c #AB6C4F",
"g c #B06A4E",
"h c #B66E4F",
"j c #B76E50",
"k c #B96F50",
"l c #B97050",
"z c #BB7453",
"x c #BC7453",
"c c #BE7755",
"v c #B87856",
"b c #BF7855",
"n c #C07A57",
"m c #C3815B",
"M c #C5805A",
"N c #C6835C",
"B c #C7845D",
"V c #C8845D",
"C c #CC8960",
"Z c #CE8D62",
"A c #D08F63",
"S c #D59567",
"D c #D69668",
/* pixels */
"lllkkkkkkkkkkkkkkkkkkkkkkkkkkkkkkkkkkkkkkkkkkkkkkkkkkkkkjhhjkkkk",
"hhhjjkkkkkkkkkkkkkkkkkkkkkkkkkkkkkkkkkkkkkkkkkkkkkkkkkkllllllkkk",
"addghhkkkkkkkkkkkkkkkkkkkkkkkkkkkkkkkkkkkkkkkkkkkkkkkklzcbbczlkk",
"wwridhkllllllllllllllllllllllllllllllllllllllllllllkklxnMVBMnzlk",
"246wigklllllllllllllllllllllllllllllllllllllllllllkkklcMCAACMclj",
"%-16eshjjhhhhhhhhhhhhhhhhhhhhhhhhhhhhhhhhhhhhhhhhhhhhlcNADDABblh",
"O+&18ypdddddddddddddddddggdddddddddddddddddddddddddddgzmZSDAVblh",
" X#>26qetyyyyyyyyyyyyyyyyyyyyyyyyyyyyyyyyyyyyyyyyyyttudvBZACMclj",
" X+$>1456677777777777777777777777777777777777777777770rfvmNMnzlk",
".XO+#%->,<444444444444444444444444444444444444444443346rdzccxlkk",
"XXXOO+@$*:,,,,,,,,,,,,,,,,,,,,,,,,,,,,,,,,,,,,,,,,,::<40uglllkkk",
"XXX..XO@&=::::::::::::::::::::::::::::::::::::::::::::37tdhkkkkk",
"XXX...O@&=::::::::::::::::::::::::::::::::::::::::::::37tdhkkkkk",
"XXXX.X+#&;:::::::::::::::::::::::::::::::::::::::::::,47ydhklkkk",
"XXXXXo+#&;::::::;;;;;;;;;;;;;;;;;;;;;;;;;;;;;;;::::::,47ydhllkkk",
"XXXXXo+#&;:::::;=*&&&&&&&&&&&&&&&&&&&&&&&&&&&&*=;::::,47ydhllkkk",
"XXXXXO+#&;::::;=&$############################$&=;:::,47ydhllkkk",
"XXXXXO+#&;::::;*$@++++++++++++++++++++++++++++@$*;:::,47ydhllkkk",
"XXXXXO+#&;::::;&#+OOO++++++++++++++++++++++OOO+#&;:::,47ydhllkkk",
"XXXXXO+#&;::::;&@OoO+@####################@+OO+#&;:::,47ydhllkkk",
"XXXXXO+#&;::::;&@OO+#$&&&&&&&&&&&&&&&&&&&&$#+O+#&;:::,47ydhllkkk",
"XXXXXO+#&;::::;*##@#$*=;;;;;;;;;;;;;;;;;;=*$@++#&;:::,47ydhllkkk",
"XXXXXO+#&;:::::;----;;::::::::::::::::::::=&#++#&;:::,47yghllkkk",
"XXXXXO+#&;::::,<<22<<,::::::::::::::::::::;&#++#&;:::,47yghllkkk",
"XXXXXo+#&;::::<468864<,:::::::::::::::::::;&#++#&;:::,47ydhllkkk",
"XXXXXo+#&;:::,<6qyyq6<,:::::::::::::::::::;&#++#&;:::,47ydhllkkk",
"XXXXXO+#&;:::,47yaay74,:::::::::::::::::::;&#++#&;:::,47ydhllkkk",
"XXXXXo+#&;:::,40uddu04,:::::::::::::::::::;&#++#&;:::,47ydhllkkk",
"XXXXXO+#&;:::,40udgu04,:::::::::::::::::::;&#++#&;:::,47ydhllkkk",
"XXXXXO+#&;:::,47uddu74,:::::::::::::::::::;&#++#&;:::,47ydhllkkk",
"XXXXXO+#&;:::,40yddy74,:::::::::::::::::::;&#++#&;:::,47ydhllkkk",
"XXXXXO+#&;:::,47yddy74,:::::::::::::::::::;&#++#&;:::,47ydhllkkk",
"XXXXXO+#&;:::,47yddy74,:::::::::::::::::::;&#++#&;:::,47ydhllkkk",
"XXXXXO+#&;:::,47uddy74,:::::::::::::::::::;&#++#&;:::,47ydhllkkk",
"XXXXXO+#&;:::,47uddu74,:::::::::::::::::::;&#++#&;:::,47ydhllkkk",
"XXXXXO+#&;:::,47uddu74,:::::::::::::::::::;&#++#&;:::,47ydhllkkk",
"XXXXXo+#&;:::,47yddy74,:::::::::::::::::::;&#++#&;:::,47ydhllkkk",
"XXXXXo+#&;:::,47yddy74,:::::::::::::::::::;&#++#&;:::,47ydhllkkk",
"XXXXXo+#&;:::,47yddy74,:::::::::::::::::::;&#++#&;:::,47ydhllkkk",
"XXXXXo+#&;:::,47yddy74::::::::::::::::::::=&#++#&;:::,47ydhllkkk",
"XXXXXO+#&;:::,47yddu74::::::::::::::::::::=&#++#&;:::,47ydhllkkk",
"XXXXXO+#&;:::,47yddu04<::,,,,,,,,,,,,,,<,,;*#++#&;:::,47ydhllkkk",
"XXXXXO+#&;:::,47yddiq644444444444444444444<;$@+#&;:::,47ydhllkkk",
"XXXXXO+#&;:::,47udgsuq0777777700777777000761-#+#&;:::,47ydhllkkk",
"XXXXXO+#&;:::,47ydhgspuyyyyyyyyuyyyyyuuuuyq6,$+@&;:::,47ydhllkkk",
"XXXXXO+#&;:::,47tdhhggddddddddddddddddddday71%##&;:::,47ydhllkkk",
"XXXXXO+#&;:::,<6eidggdddddddddddddddddddday81-##&;:::,47yghllkkk",
"XXXXXO+#&;::::<47etyuyyuyyyyyyyyyyyyyyuuuyq6<;$&=;:::,47yghllkkk",
"XXXXXo+#&;::::<34670077777777777077777700764<;==;::::,47ydhllkkk",
"XXXXXo+#&;::::,<<3444444444444444444444444<<,:;;:::::,47ydhllkkk",
"XXXXXO+#&;:::::::,,,,,,,,,,,,,,,,,,,,,,,,,,::::::::::,47yghllkkk",
"XXXXXo+#&;:::::::::::::::::::::::::::::::::::::::::::,47ydhllkkk",
"XXXXXO+#&;:::::::::::::::::::::::::::::::::::::::::::,47ydhllkkk",
"XXXXXO+#&=:::::::::::::::::::::::::::::::::::::::::::,47ydhllkkk",
"XXXXXX+#$*=;;;;;;;;;;;;;;;;;;;;;;;;;;;;;;;;;;;;;;;;==:<6ydhllkkk",
"XXXXXOO+#$&&&&&&&&&&&&&&&&&&&&&&&&&&&&&&&&&&&&&&&&&&&*,6tdjllkkk",
"XXXXXXOO+##########################################@@$>5edjllkkk",
"XXXXXXXOO++++++++++++++++++++++++++++++++++++++++++OO@-4qphkkkkk",
"XXXXXXXXOOOOooooOOOOooooOOOOooooOOOOooooOOOOooooOOOXX+%16ysghhkk",
"XXXXXXXXXXXXXXXXXXXXXXXXXXXXXXXXXXXXXXXXXXXXXXXXXXX..O#>28eidhjk",
"XXXXXXXXXXXXXXXXXXXXXXXXXXXXXXXXXXXXXXXXXXXXXXXXXX...X+$>16wigjk",
"XXXXXXXXXXXXXXXXXXXXXXXXXXXXXXXXXXXXXXXXXXXXXXXXXXXXXXO+#&16rdhl",
"XXXXXXXXXXXXXXXXXXXXXXXXXXXXXXXXXXXXXXXXXXXXXXXXXXXXXXXXX+-4wdhl",
"XXXXXXXXXXXXXXXXXXXXXXXXXXXXXXXXXXXXXXXXXXXXXXXXXXXXXX.  O%2wahl"
};
