/* XPM */
static char *de36778229254562e1f1604f205bb973oYt5hbIGPXLX7Koh[] = {
/* columns rows colors chars-per-pixel */
"64 64 169 2 ",
"   c #17202F",
".  c #1C222E",
"X  c #172030",
"o  c #1B2231",
"O  c #2D2226",
"+  c #2F2827",
"@  c #23232C",
"#  c #2A252A",
"$  c #2C292C",
"%  c #342425",
"&  c #3A2623",
"*  c #342926",
"=  c #3C2C24",
"-  c #332B29",
";  c #3C2B2B",
":  c #3C3127",
">  c #35312C",
",  c #3D3129",
"<  c #202731",
"1  c #292E38",
"2  c #3F2E32",
"3  c #3F3D3F",
"4  c #45261E",
"5  c #462B1E",
"6  c #4C2D1D",
"7  c #502F1C",
"8  c #44321F",
"9  c #4D311D",
"0  c #4F381D",
"q  c #563617",
"w  c #583717",
"e  c #5C3C17",
"r  c #54341B",
"t  c #58371A",
"y  c #56391B",
"u  c #5B3B1B",
"i  c #603F16",
"p  c #603F19",
"a  c #432521",
"s  c #432B22",
"d  c #4A2C21",
"f  c #412B2B",
"g  c #443223",
"h  c #4C3322",
"j  c #4E3822",
"k  c #41342A",
"l  c #49312A",
"z  c #523422",
"x  c #523A22",
"c  c #5B3C22",
"v  c #51362A",
"b  c #533A2B",
"n  c #483936",
"m  c #553D33",
"M  c #5F4117",
"N  c #5E401C",
"B  c #644216",
"V  c #644217",
"C  c #694716",
"Z  c #6C4A17",
"A  c #624119",
"S  c #63431B",
"D  c #664518",
"F  c #62411D",
"G  c #68471B",
"H  c #67481D",
"J  c #6C4A1B",
"K  c #6E4D1A",
"L  c #704E17",
"P  c #704E1A",
"I  c #74521D",
"U  c #78561D",
"Y  c #7B581F",
"T  c #564022",
"R  c #5C4123",
"E  c #5E4536",
"W  c #594339",
"Q  c #634321",
"!  c #684726",
"~  c #654922",
"^  c #6C4C23",
"/  c #63462B",
"(  c #664C2F",
")  c #694D2C",
"_  c #714E21",
"`  c #745322",
"'  c #795621",
"]  c #7C5B23",
"[  c #614636",
"{  c #654B33",
"}  c #634B3D",
"|  c #6D5232",
" . c #69503B",
".. c #343840",
"X. c #534544",
"o. c #584544",
"O. c #5F4D43",
"+. c #514649",
"@. c #534C4A",
"#. c #594D4B",
"$. c #5F5047",
"%. c #605146",
"&. c #635346",
"*. c #6A5646",
"=. c #6F5844",
"-. c #62524A",
";. c #685648",
":. c #6E5A4C",
">. c #755E4B",
",. c #615756",
"<. c #605857",
"1. c #6D5C55",
"2. c #635A59",
"3. c #695F5F",
"4. c #715E52",
"5. c #776151",
"6. c #7B6655",
"7. c #76655C",
"8. c #7C6B5C",
"9. c #6D6463",
"0. c #706767",
"q. c #7D6E64",
"w. c #726B6B",
"e. c #7C7474",
"r. c #815F24",
"t. c #856223",
"y. c #817165",
"u. c #82736A",
"i. c #88786C",
"p. c #877A72",
"a. c #8A7C73",
"s. c #857B79",
"d. c #8D837E",
"f. c #8D8482",
"g. c #968C86",
"h. c #9E938E",
"j. c #9C9593",
"k. c #A29994",
"l. c #A59D99",
"z. c #A5A09D",
"x. c #A7A2A1",
"c. c #ABA6A4",
"v. c #B1A9A4",
"b. c #B3AEAB",
"n. c #B9B1AB",
"m. c #B2B1B1",
"M. c #B3B2B2",
"N. c #B5B3B2",
"B. c #BAB5B1",
"V. c #C3BEBA",
"C. c #C5C1BF",
"Z. c #C6C2C0",
"A. c #CDC9C7",
"S. c #CCC9C8",
"D. c #D2CFCD",
"F. c #D5D2D1",
"G. c #D8D6D5",
"H. c #DBD8D7",
"J. c #DCDAD9",
"K. c #E1DFDF",
"L. c #E4E2E2",
"P. c #E8E7E6",
"I. c #E9E8E7",
"U. c #EDECEC",
"Y. c #EFF0F0",
"T. c #F2F1F1",
"R. c #F8F8F7",
"E. c #F7F7F8",
"W. c #FEFEFE",
/* pixels */
"T.l.O.r 4 6 7 6 a 4 4 4 4 6 6 4 q t t A e q w %.M.W.W.W.W.W.W.W.W.W.W.W.W.W.W.W.W.T.N.g r 9 e w y u t 5 r r 7 4 c t d 4 7 6 4 r ",
"J.a.q 6 4 5 6 6 a 4 6 6 6 6 6 7 i e u A w q w %.M.W.W.W.W.W.W.W.W.W.W.W.W.W.W.W.W.Y.N.h 6 r A w u p u r p i r 7 t Q d 4 r 6 4 q ",
"F.u.q 5 4 6 7 7 a 4 7 6 d t 7 7 V i u i w q w ;.M.W.W.W.W.W.W.W.W.W.W.W.W.W.W.W.W.Y.N.j r r e t u A e t V V i 7 e ^ z a r 6 4 w ",
"x.>.r 6 5 7 r 4 a 4 r 6 6 u t 7 V p t i r 7 w %.M.W.W.W.W.W.W.W.W.W.W.W.W.W.W.W.W.Y.N.x w u V q t D u u Z L V r e P c 6 9 4 5 w ",
"9.E r 6 4 r r a d u A r 6 t t 7 F e r t 6 r w %.M.W.W.W.W.W.W.W.W.W.W.W.W.W.W.W.W.T.N.x e t A 6 t D u e K Z i r p P c r r a 5 u ",
"2.b r 6 6 r r a d K K r 7 e t d S u 7 w r u w %.M.W.W.W.W.W.W.W.W.W.W.W.W.W.W.W.W.Y.M.x u r i d t A u c K D e r A P t r r d t u ",
"2.m q 6 6 t t a z ` K u t i t d S u 6 u u w w %.M.W.W.W.W.W.W.W.W.W.W.W.W.W.W.W.W.Y.M.r u t F d z p t p _ V t r e I R d q r D N ",
"<.b 9 6 4 t u d r I L u t A t z J e r u S e w %.M.W.W.W.W.W.W.W.W.W.W.W.W.W.W.W.W.Y.M.r u e F h c e r c I H r r i ' R a r 9 A N ",
"<.2 & % a t u d z J K u r r 9 z H u 9 F D F w %.M.W.W.W.W.W.W.W.W.W.W.W.W.W.W.W.W.U.N.g y e D z c F x c J J d r D C z d r & g = ",
"w.3 O O = x u a # ; k g g 9 a z K y r K H t u %.M.W.W.W.W.W.W.W.W.W.W.W.W.W.W.W.W.T.N.h t A A R c R x b R x % - ; - & 5 g o o o ",
"w.3 O O * * ; # . . @ @ @ # @ - , s h K D u r -.M.W.W.W.W.W.W.W.W.W.W.W.W.W.W.W.W.T.B.r q N H c h ; - - - $ . @ . . @ - - . . o ",
"w.n = O = u ~ x @ o     X     . . # k T u u 9 @.M.W.W.W.W.W.W.W.W.W.W.W.W.W.W.W.W.T.N.u t V A 9 - @ . . .       . . l ! R - * : ",
"w.m 9 a 5 p I ^ s z l = - - $ @ @ # = y u w 8 @.m.W.W.W.W.W.W.W.W.W.W.W.W.W.W.W.W.T.B.u y A e 8 % @ @ # + = g g h h c ^ K r 5 u ",
"9.m u s 6 D P P x K A d z N x = h = 6 u N q 9 @.m.W.W.W.W.W.W.W.W.W.W.W.W.W.W.W.W.T.B.F u u i t 8 9 s s 8 q M N C u r ` ' u r e ",
"9.m r 6 6 p P ^ c L C r t K D 9 e 6 r A A u 5 @.M.W.W.W.W.W.W.W.W.W.W.W.W.W.W.W.W.T.B.S e r S u w e q 5 w V A c C t 6 ` t.q 9 w ",
"9.m r 4 6 A _ F z C D r p K F r A u z D u q 9 @.m.W.W.W.W.W.W.W.W.W.W.W.W.W.W.W.W.T.B.S e Q J u e e q 6 w V u t C d 4 U t.e 9 w ",
"3.b r 4 6 C _ 6 6 p V r A L p z Z A r H p t w %.M.W.W.W.W.W.W.W.W.W.W.W.W.W.W.W.W.T.B.p u F J u u A y r i C i u D d a ' t.A 6 e ",
"#.v 6 4 6 Z ] p 6 i C 7 A L F z Z i r Z D t e ;.M.W.W.W.W.W.W.W.W.W.W.W.W.W.W.W.W.T.B.S i c C t u e q r i i V p u d a ' t.F 6 u ",
"#.h r 6 5 J r.D 5 i C 9 A L u z L i t H i e e ;.M.W.W.W.W.W.W.W.W.W.W.W.W.W.W.W.W.T.B.Q u u C u u N u r i V V u i t 4 ` t.u r Q ",
"+.v r 6 6 D ] ` 5 e B r S S 6 z Z i t D p w w %.M.W.W.W.W.W.W.W.W.W.W.W.W.W.W.W.W.T.B.p u Q K e F A u q p p p u i P t ` t.t 9 N ",
"X.v r 5 7 t I r.d w A 6 A Q d z Z i r A t r q %.M.W.W.W.W.W.W.W.W.W.W.W.W.W.W.W.W.T.B.F u _ Z u Q J p r i p z c A K Q ` U e 9 e ",
"X.h q 6 6 q ^ ] d w A 6 S C d z Z A r A r r q %.M.W.W.W.W.W.W.W.W.W.W.W.W.W.W.W.W.T.B.F u _ C u Q J p t i p 7 7 A K ! ^ I e r e ",
"X.v t 6 r t H ] d q V 6 S L c u D i t e r r w O.M.W.W.W.W.W.W.W.W.W.W.W.W.W.W.W.W.Y.B.c u _ Z u Q P p r i p 6 d e H ! ^ I e r e ",
"o.b r 6 r t ^ ] 5 t i z S L u r C A t p r t w %.M.W.W.W.W.W.W.W.W.W.W.W.W.W.W.W.W.Y.N.g u _ K u H J p z V V r 5 u J ! ^ Z A y N ",
"o.x r 5 z u H ] d u i 6 ^ P t r C i q A y u N -.M.W.W.W.W.W.W.W.W.W.W.W.W.W.W.W.W.Y.N.j u ` L u Q P F u D C i 6 w P ) ^ P i r p ",
"X.v r 6 r t ^ r.z Q D 6 J L r 6 i V t i u A N -.M.W.W.W.W.W.W.W.W.W.W.W.W.W.W.W.W.Y.N.h u ^ K u S J A c Z D V r D J ) ^ P u r A ",
"X.b r 6 s t ` ] z H D r J I Q r V A t e w M A $.M.W.W.W.W.W.W.W.W.W.W.W.W.W.W.W.W.T.N.9 w u H t p J u t Z C V t I F c ^ J r A A ",
"X.x q 7 6 u P ` z H V r S I Q 6 V i t e q e e $.M.W.W.W.W.W.W.W.W.W.W.W.W.W.W.W.W.Y.N.j e y S z u D e r A D V t I e c ` S 5 r u ",
"#.b q 6 7 e P ` z H D r t P ^ r V i y N g r e $.M.W.W.W.W.W.W.W.W.W.W.W.W.W.W.W.W.T.N.x q = g u J Z u r A V V t ` p c _ ~ a z A ",
"#.b r 6 r A I ^ 7 H P r t U ^ r A A r N g 9 M &.M.W.W.W.W.W.W.W.W.W.W.W.W.W.W.W.W.Y.M.g q & s c J C t r A i V w I Q c _ S a d e ",
"w.W 6 7 6 D I ^ d G J 7 r I _ r V B r 0 * = y ;.M.W.W.W.W.W.W.W.W.W.W.W.W.W.W.W.W.Y.N.j 5 O * r D D t r e i C u J u c ! S a 5 p ",
"3.m 7 6 6 A I ` d J C z t U P r D e 5 = - + 0 ;.M.W.W.W.W.W.W.W.W.W.W.W.W.W.W.W.W.Y.N.g s * * h C C w 7 w e H u F u c ^ S a d e ",
"X.h 7 6 6 y H ` d J P r t P H r D e 5 : 8 & 9 ;.M.W.W.W.W.W.W.W.W.W.W.W.W.W.W.W.W.T.N.g 8 g : g A D e r q w t F u r z ^ V a 6 u ",
"X.z r 6 6 y D P r J L r u H c r C A g g 5 8 0 ;.M.W.W.W.W.W.W.W.W.W.W.W.W.W.W.W.W.Y.M.g 8 : > j H Z u r u u d c u w c ~ H d 6 e ",
"#.l r 6 6 u K ` h P L z u S z 6 B e N T 8 8 w %.M.W.W.W.W.W.W.W.W.W.W.W.W.W.W.W.W.Y.N.g 9 = : x Z Z w y D S z c e i t R p d d t ",
"0.m 6 5 5 w K ` 7 J L z i S z 7 B A R J y y e $.M.W.W.W.W.W.W.W.W.W.W.W.W.W.W.W.W.Y.N.x e y e e A D u u J P J t p V r r t d 6 5 ",
"e.m d d 6 u K ' z J L z u L ^ r B B F K u w e ;.M.W.W.W.W.W.W.W.W.W.W.W.W.W.W.W.W.T.M.j e t D e e D e z F I ' t D e d d t z u 7 ",
"c.1.7 d z e Z ' 6 D K r u I J r B Z Q K u u e *.M.W.W.W.W.W.W.W.W.W.W.W.W.W.W.W.W.Y.N.x e t C A t A u z F U ] t S u a r c 7 V u ",
"j.-.r 7 r e L ' 6 A D r e H t r D J S J e u y @.M.W.W.W.W.W.W.W.W.W.W.W.W.W.W.W.W.Y.N.j e t C e y i u z Q U ] F D D 6 d r r i w ",
"f.O.r 7 r e K ' 6 e C r e S r r i J Q J p u 0 @.M.W.W.W.W.W.W.W.W.W.W.W.W.W.W.W.W.T.N.x A t V w w i q r ^ U Y u J C h r t 9 A w ",
",.v r 6 t e Z ` 9 e C 9 e A y t i P F J A u 9 @.M.W.W.W.W.W.W.W.W.W.W.W.W.W.W.W.W.T.B.y q r e u y M q u K U ' y J C r u F 9 A q ",
"2 d 7 6 r u D I 6 e C r u t 9 9 y Q R J H u 9 @.b.W.W.W.W.W.W.W.W.W.W.W.W.W.W.W.W.T.B.t r 6 e q 9 9 5 8 R ~ ~ r K K r D H h A w ",
"n d 6 5 t w A ^ s 9 c s = ; * - - j g F F e 9 @.M.W.W.W.W.W.W.W.W.W.W.W.W.W.W.W.W.T.B.x r 4 w 9 + # # + - : , g c c z Q R = r y ",
"4 a 5 4 9 u x - . @             o $ * R N w 9 @.M.W.W.W.W.W.W.W.W.W.W.W.W.W.W.W.W.T.B.t 9 5 y s + . . . .       o . l j > . % , ",
"% % & & % - # . . @ . . @ # @ $ - = s c u y 9 @.M.W.W.W.W.W.W.W.W.W.W.W.W.W.W.W.W.T.B.t r d u 5 s * O # $ $ < . . o $ $ < . < 1 ",
"% O % % + @ # # @ . > - g g h N F F z u z 9 8 @.M.W.W.W.W.W.W.W.W.W.W.W.W.W.W.W.W.T.B.N 7 h t d 9 6 & 5 0 0 0 - - $ , k $   o 3 ",
"O % & 5 h x u c $ $ ~ z N N 9 y D H 6 c r 0 9 @.M.W.W.W.W.W.W.W.W.W.W.W.W.W.W.W.W.T.B.F t t r 6 r r 4 6 A Z A y y 9 x c h @ $ ..",
"% % = 5 c H D D F u I x M A q u D F h r u y 9 @.M.W.W.W.W.W.W.W.W.W.W.W.W.W.W.W.W.T.B.u r r t r w q 4 6 A Z e y w e d 6 h = , O.",
"4 5 r 6 u J A D t D L r u N t t D S h u u t 9 @.M.W.W.W.W.W.W.W.W.W.W.W.W.W.W.W.W.Y.B.x r h q c A u 6 r C H u t t D z 5 r d c &.",
"d d 7 6 c S e A d D K r u A y y Z J z p u r 5 @.M.W.W.W.W.W.W.W.W.W.W.W.W.W.W.W.W.Y.N.j r 6 r t D C r u S D u t u Z c c p r ! =.",
"f 5 7 6 t ^ D A z K Z z t p y u P J t D e r 6 @.M.W.W.W.W.W.W.W.W.W.W.W.W.W.W.W.W.T.N.r w 6 r t D A w u D A y r e Z x u N r ^ >.",
"= 6 7 4 6 J I e z K Z r t e t Q I S u p r 7 r @.M.W.W.W.W.W.W.W.W.W.W.W.W.W.W.W.W.Y.N.j w 6 r t F K u u Z C e t D D r u e z ^ 4.",
"f d 6 4 7 Z U N 7 L K r N F z S U u r i u r r %.M.W.W.W.W.W.W.W.W.W.W.W.W.W.W.W.W.Y.M.j e 6 r u D H p c C C A t A D z N u 9 ) 5.",
"f 5 7 5 9 ^ U A z Z D r e p z H I r 7 u e t u %.M.W.W.W.W.W.W.W.W.W.W.W.W.W.W.W.W.T.N.j e 5 t t D J p t H C A t D A r u N h ) 6.",
"f d 7 d q J ' D Q D e 6 y t Q ` C 6 6 w i u e %.M.W.W.W.W.W.W.W.W.W.W.W.W.W.W.W.W.Y.M.j e 5 w u Q J p z p C V t D D r t e r ( y.",
"f z 7 6 9 S U K p D e 6 e t J r.V r 7 t p p i *.M.W.W.W.W.W.W.W.W.W.W.W.W.W.W.W.W.Y.N.j e r A w p H p 7 p D D t I D 6 u u 5 ) 8.",
"f l r 6 r i L ` t V i 7 p p c u M u 6 r D e u *.N.W.W.W.W.W.W.W.W.W.W.W.W.W.W.W.W.T.N.b u h p u u J p d t V D t ] A 9 u u h ( y.",
"f 7 r 6 7 e K P r D i 6 p p r t C e 6 u { :.u.j.D.W.W.W.W.W.W.W.W.W.W.W.W.W.W.W.W.E.H.z.f.7. .t t p u d r C D F P D 9 u N h | y.",
"f z r 6 r e C V d V i 6 t u r t F 4.p.h.b.C.F.K.T.W.W.W.W.W.W.W.W.W.W.W.W.W.W.W.W.W.E.I.J.S.B.l.a.8.} d r C p Q Z D y N N 5 { y.",
"; l q r w Q / { W H i 6 7 / y.h.b.B.D.L.U.R.W.W.W.W.W.W.W.W.W.W.W.W.W.W.W.W.W.W.W.W.W.W.W.R.T.P.G.Z.b.k.s.6.q c S A r u u a W y.",
"; b m [ [ / c [ [ >.p.j.c.n.A.K.U.E.W.W.W.W.W.W.W.W.W.W.W.W.W.W.W.W.W.W.W.W.W.W.W.W.W.W.W.W.W.W.W.E.U.L.D.V.c.h.i. .r t y a W p.",
"f v [ } *.8.p.g.k.n.D.I.W.W.W.W.W.W.W.W.W.W.W.W.W.W.W.W.W.W.W.W.W.W.W.W.W.W.W.W.W.W.W.W.W.W.W.W.W.W.W.W.W.W.W.P.A.v.j.d.q.X.m q.",
"+.4.u.a.h.n.G.U.W.W.W.W.W.W.W.W.W.W.W.W.W.W.W.W.W.W.W.W.W.W.W.W.W.W.W.W.W.W.W.W.W.W.W.W.W.W.W.W.W.W.W.W.W.W.W.W.W.W.R.P.A.x.s.a.",
"s.b.K.T.R.W.W.W.W.W.W.W.W.W.W.W.W.W.W.W.W.W.W.W.W.W.W.W.W.W.W.W.W.W.W.W.W.W.W.W.W.W.W.W.W.W.W.W.W.W.W.W.W.W.W.W.W.W.W.W.W.R.R.U."
};
